<?xml version="1.0" encoding="UTF-8"?>
<svg version="1.1" xmlns="http://www.w3.org/2000/svg" width="1024" height="1024">
<path d="M0 0 C4.59574023 6.4627597 4.1848564 12.28791555 3.125 19.8125 C2.98916504 20.79943848 2.85333008 21.78637695 2.71337891 22.80322266 C-4.81321413 72.6659425 -26.40019852 120.66274596 -58 159.8125 C-58.8146875 160.83214844 -59.629375 161.85179687 -60.46875 162.90234375 C-71.21830893 176.11410361 -83.42464894 188.51523508 -97 198.8125 C-98.25663444 199.78629831 -99.51313504 200.76026935 -100.76953125 201.734375 C-108.88290711 207.97295466 -117.13122984 213.68113868 -126 218.8125 C-126.6300293 219.19083984 -127.26005859 219.56917969 -127.90917969 219.95898438 C-159.13754129 238.70505741 -194.20742757 247.2687727 -229.875 252.5625 C-230.6353656 252.67563538 -231.3957312 252.78877075 -232.17913818 252.90533447 C-234.36613616 253.22830287 -236.55391643 253.54515928 -238.7421875 253.859375 C-240.0194873 254.04338867 -241.29678711 254.22740234 -242.61279297 254.41699219 C-245.45668321 254.74905952 -248.14307073 254.8956652 -251 254.8125 C-252.72693863 250.68646099 -251.11222541 247.74400776 -249.5625 243.75 C-247.60215051 238.90865419 -247.60215051 238.90865419 -247 233.8125 C-246.34 233.8125 -245.68 233.8125 -245 233.8125 C-244.76667969 233.02230469 -244.53335937 232.23210937 -244.29296875 231.41796875 C-242.63702799 226.80034542 -240.51579756 222.50290635 -238.3125 218.125 C-237.63767578 216.78381104 -237.63767578 216.78381104 -236.94921875 215.41552734 C-233.65617593 208.94822646 -230.15494893 202.77087357 -226 196.8125 C-225.62907227 196.27463867 -225.25814453 195.73677734 -224.87597656 195.18261719 C-219.77418337 187.80331116 -214.45013452 180.7437992 -208.6171875 173.921875 C-206.79718949 171.9909581 -206.79718949 171.9909581 -207 169.8125 C-205.59755268 168.6494949 -204.19157175 167.49052702 -202.76953125 166.3515625 C-199.4941094 163.50274084 -196.80574344 160.11337463 -194 156.8125 C-189.91017549 152.06705477 -186.01428553 147.60709446 -181 143.8125 C-179.33187582 142.14729212 -177.66549006 140.48034245 -176 138.8125 C-173.83123052 136.77118524 -171.63496804 134.76034188 -169.4375 132.75 C-168.31044906 131.71826536 -167.18412987 130.68573072 -166.05859375 129.65234375 C-165.26364502 128.92313721 -165.26364502 128.92313721 -164.45263672 128.17919922 C-163.21358118 127.01344579 -162.02471144 125.79473063 -160.84765625 124.56640625 C-158.96084451 122.77533126 -157.32646236 121.93116293 -155 120.8125 C-153.43259747 119.61632438 -151.8929364 118.38335444 -150.375 117.125 C-145.41957196 113.09134057 -140.2797434 109.40721891 -135 105.8125 C-136.64846769 106.26126616 -138.29373455 106.72180488 -139.9375 107.1875 C-140.85402344 107.44273437 -141.77054688 107.69796875 -142.71484375 107.9609375 C-145.16745087 108.57910104 -145.16745087 108.57910104 -146 110.8125 C-147.6513128 111.51633824 -149.32217985 112.17442339 -151 112.8125 C-171.43509526 122.7373906 -189.94877815 136.11070767 -206.5546875 151.5546875 C-208.65882391 153.49748437 -210.80582946 155.34866072 -213 157.1875 C-230.38383876 172.37623081 -244.17102182 192.37708645 -254.9375 212.625 C-255.39833984 213.48424072 -255.85917969 214.34348145 -256.33398438 215.22875977 C-258.98896039 220.34548854 -260.90543854 225.29391618 -262.32641602 230.88549805 C-263 232.8125 -263 232.8125 -265 233.8125 C-266.37962582 237.34529907 -267.10411038 241.13363412 -268 244.8125 C-268.18997559 245.55193848 -268.37995117 246.29137695 -268.57568359 247.05322266 C-276.30250276 277.22835749 -276.9785105 308.28101248 -278.52380371 339.24127197 C-278.79969166 344.73341725 -279.08485655 350.22508094 -279.36914062 355.71679688 C-279.92161938 366.41492371 -280.46414765 377.11352835 -281 387.8125 C-280.34 388.1425 -279.68 388.4725 -279 388.8125 C-278.67 389.8025 -278.34 390.7925 -278 391.8125 C-276.75089844 391.95945312 -275.50179688 392.10640625 -274.21484375 392.2578125 C-242.81691999 396.20199937 -211.73539967 405.87888294 -186 424.8125 C-185.21753906 425.38484375 -184.43507813 425.9571875 -183.62890625 426.546875 C-157.30458741 446.43838802 -157.30458741 446.43838802 -154 458.8125 C-153.53652641 462.98376232 -153.78757415 466.29615941 -156.46484375 469.64453125 C-164.5966059 476.95777905 -173.8314464 476.96330999 -184.22749329 476.94621277 C-185.75108807 476.9496111 -185.75108807 476.9496111 -187.30546254 476.95307809 C-190.70145606 476.95939696 -194.09740946 476.95859008 -197.4934082 476.95776367 C-199.93138684 476.96075647 -202.36936499 476.96415928 -204.80734253 476.96794128 C-210.73804318 476.97585601 -216.66873445 476.9789954 -222.5994393 476.97955366 C-227.42231936 476.98002957 -232.24519615 476.98208806 -237.06807518 476.98525429 C-250.75510774 476.99405639 -264.44213248 476.99867434 -278.12916789 476.99792381 C-278.86634473 476.99788386 -279.60352158 476.9978439 -280.36303711 476.99780273 C-281.10111857 476.99776185 -281.83920004 476.99772097 -282.5996476 476.99767885 C-294.55876767 476.99727248 -306.51785624 477.00684095 -318.47696719 477.0209411 C-330.76951423 477.03531952 -343.06204591 477.04221048 -355.35460156 477.04134732 C-362.25070507 477.04101587 -369.14677556 477.04374046 -376.04287148 477.05452538 C-382.52960262 477.06460543 -389.0162821 477.06428005 -395.50301743 477.05700874 C-397.88057113 477.0559639 -400.25812919 477.05831981 -402.63567543 477.0643692 C-405.88771711 477.0721062 -409.13951913 477.06743288 -412.39155579 477.05973816 C-413.32649866 477.06488172 -414.26144153 477.07002529 -415.22471601 477.07532471 C-422.3647575 477.03813659 -429.77529595 476.7607587 -436 473 C-438.73310751 470.01066366 -440.09555 468.00146354 -439.9140625 463.84375 C-438.1691357 452.8313231 -429.34944768 444.60090787 -422 436.8125 C-421.34773437 436.08417969 -420.69546875 435.35585938 -420.0234375 434.60546875 C-392.12569652 404.71503199 -351.0151353 394.19604622 -312 389.8125 C-310.27370738 385.34532068 -309.78303075 381.77966577 -309.91796875 377.00390625 C-309.9430677 376.01020523 -309.9430677 376.01020523 -309.96867371 374.99642944 C-310.02915924 372.78871549 -310.10731962 370.58208128 -310.1875 368.375 C-310.21233459 367.6043924 -310.23716919 366.83378479 -310.26275635 366.03982544 C-311.49546212 327.91953912 -312.91933873 289.17300497 -321.58862305 251.92773438 C-322 249.8125 -322 249.8125 -322 246.8125 C-322.66 246.4825 -323.32 246.1525 -324 245.8125 C-324.44536518 243.75696841 -324.8843263 241.69986479 -325.29296875 239.63671875 C-326.42667726 235.10814831 -328.22791363 230.85623944 -329.9765625 226.53515625 C-331 223.8125 -331 223.8125 -331 221.8125 C-331.66 221.4825 -332.32 221.1525 -333 220.8125 C-333.67346219 218.81477802 -334.33790873 216.81401932 -335 214.8125 C-340.81189152 201.73298177 -347.61443029 189.39749671 -356 177.8125 C-356.44923828 177.17683105 -356.89847656 176.54116211 -357.36132812 175.88623047 C-364.60584768 165.65170928 -372.6444248 156.44109409 -381.390625 147.46435547 C-382.7182363 146.10170104 -384.0327957 144.72634319 -385.34375 143.34765625 C-390.49697167 138.01491661 -396.17742032 133.39355797 -402 128.8125 C-402.90363281 128.09191406 -403.80726563 127.37132812 -404.73828125 126.62890625 C-417.11650706 117.02422481 -430.5392326 108.86762699 -445 102.8125 C-441.47482559 106.48809929 -437.75540106 109.62204599 -433.6875 112.6875 C-425.26833969 119.17820537 -417.62297733 126.41645328 -410 133.8125 C-409.36465332 134.42593262 -408.72930664 135.03936523 -408.07470703 135.67138672 C-400.51338658 142.99745738 -393.43854494 150.45946348 -387 158.8125 C-386.29875 159.68519531 -385.5975 160.55789063 -384.875 161.45703125 C-373.82798712 175.56169948 -365.02905671 191.36422445 -358 207.8125 C-357.63326172 208.67037109 -357.26652344 209.52824219 -356.88867188 210.41210938 C-355.74215828 213.12222695 -354.6161845 215.8397612 -353.5 218.5625 C-353.14905273 219.40876953 -352.79810547 220.25503906 -352.43652344 221.12695312 C-349.50443908 228.45864337 -349.50443908 228.45864337 -350 232.8125 C-353.93173947 234.28995295 -357.47623923 233.38856769 -361.45703125 232.58984375 C-362.18822174 232.44950714 -362.91941223 232.30917053 -363.67276001 232.1645813 C-366.05482545 231.70335274 -368.43374916 231.22801154 -370.8125 230.75 C-371.62478058 230.58877655 -372.43706116 230.4275531 -373.2739563 230.26144409 C-407.82528992 223.38901896 -440.76399783 213.75338305 -469 191.8125 C-469.87527344 191.14734375 -470.75054687 190.4821875 -471.65234375 189.796875 C-478.44632153 184.51624772 -484.74057359 178.70522977 -491 172.8125 C-491.76054687 172.11769531 -492.52109375 171.42289063 -493.3046875 170.70703125 C-507.84422811 156.9397373 -519.94112324 138.61461637 -528.78125 120.71875 C-529.92615879 118.48769879 -529.92615879 118.48769879 -533 117.8125 C-532.67 117.1525 -532.34 116.4925 -532 115.8125 C-532.71037815 113.64463249 -532.71037815 113.64463249 -533.87109375 111.2421875 C-534.28037109 110.34628906 -534.68964844 109.45039063 -535.11132812 108.52734375 C-535.54896484 107.59019531 -535.98660156 106.65304687 -536.4375 105.6875 C-536.87126953 104.74261719 -537.30503906 103.79773438 -537.75195312 102.82421875 C-538.8276662 100.48365623 -539.91059513 98.14671339 -541 95.8125 C-541.66 95.8125 -542.32 95.8125 -543 95.8125 C-543.07863281 94.7296875 -543.15726563 93.646875 -543.23828125 92.53125 C-543.95799818 86.80365977 -546.12489149 81.67009318 -548.1875 76.3125 C-551.41858726 67.63937818 -554.21980464 58.98784035 -556.4375 50 C-556.67170654 49.05382812 -556.90591309 48.10765625 -557.1472168 47.1328125 C-562.99322902 22.58344555 -562.99322902 22.58344555 -559.0234375 14.9296875 C-556.24622993 11.22077159 -553.49923818 9.57652158 -549 8.8125 C-542.03215225 9.09524864 -535.28099816 10.46152963 -528.5 12 C-527.51225586 12.22067139 -526.52451172 12.44134277 -525.50683594 12.66870117 C-523.40694368 13.1393837 -521.3076693 13.61283031 -519.20898438 14.08886719 C-516.03288407 14.80508457 -512.85295707 15.50159719 -509.671875 16.1953125 C-472.51317194 24.39918201 -435.79371693 36.17774508 -403 55.8125 C-402.05253906 56.37324219 -401.10507812 56.93398438 -400.12890625 57.51171875 C-391.67717115 62.69829616 -383.85303202 68.77534041 -376 74.8125 C-375.44199707 75.23837402 -374.88399414 75.66424805 -374.30908203 76.10302734 C-368.04110213 80.89896675 -368.04110213 80.89896675 -366 82.8125 C-366 83.4725 -366 84.1325 -366 84.8125 C-365.41089844 85.07933594 -364.82179688 85.34617187 -364.21484375 85.62109375 C-332.22324573 102.82997805 -318.97932849 156.17965917 -309.37768555 187.86621094 C-304.16287183 205.3279683 -299.914413 223.01950867 -296 240.8125 C-295.81002441 240.05557861 -295.62004883 239.29865723 -295.42431641 238.51879883 C-288.8687744 212.62927108 -280.95294418 187.47790013 -269.99755859 163.06494141 C-269.0260779 160.87138271 -268.09347452 158.66575424 -267.17578125 156.44921875 C-266.90024414 155.78656006 -266.62470703 155.12390137 -266.34082031 154.44116211 C-265.62214868 152.70647634 -264.90663406 150.97048353 -264.19140625 149.234375 C-263 146.8125 -263 146.8125 -261 145.8125 C-260.62875 144.636875 -260.62875 144.636875 -260.25 143.4375 C-257.08309543 134.25347674 -251.38851425 126.13405257 -246.1015625 118.046875 C-244.45539668 115.51337072 -242.8679352 112.96404698 -241.3125 110.375 C-239.33694069 107.19252902 -237.06884919 104.43593428 -234.58203125 101.640625 C-232.8992306 99.69605536 -231.36006588 97.67857191 -229.8125 95.625 C-225.2277652 89.69887991 -220.1611544 84.23396169 -215 78.8125 C-214.45923828 78.24305664 -213.91847656 77.67361328 -213.36132812 77.08691406 C-206.0247574 69.41532075 -198.44729408 62.49789733 -189.9609375 56.1171875 C-187.05646108 53.98543572 -187.05646108 53.98543572 -185.1015625 51.7578125 C-182.63404002 49.47374894 -180.1515566 48.28857568 -177.13232422 46.85742188 C-174.35911239 45.49844012 -171.75640921 43.91630811 -169.11962891 42.3125 C-128.7331563 17.77194223 -81.50063227 7.27020842 -35.43362427 -0.75875854 C-33.57969975 -1.08301857 -31.72669775 -1.41260366 -29.87472534 -1.74783325 C-7.82935576 -5.70890524 -7.82935576 -5.70890524 0 0 Z " fill="#FCD920" transform="translate(791,278.1875)"/>
<path d="M0 0 C0 0.66 0 1.32 0 2 C-4.91330969 3.96125261 -9.39206029 4.2912341 -14.61459351 4.2784729 C-15.46946118 4.2842653 -16.32432885 4.2900577 -17.20510161 4.29602563 C-20.0643445 4.31300213 -22.92342566 4.31590057 -25.78271484 4.31884766 C-27.8369028 4.32815019 -29.89108699 4.33831935 -31.94526672 4.34928894 C-37.53212173 4.37663691 -43.11895139 4.39176438 -48.70585585 4.40471697 C-54.59019775 4.42040628 -60.47448929 4.44720164 -66.35879517 4.4727478 C-77.54841003 4.51961455 -88.73803478 4.5562846 -99.92769778 4.58942068 C-112.50042704 4.62718726 -125.0730997 4.67690772 -137.64578319 4.72740483 C-184.40205863 4.91391957 -184.40205863 4.91391957 -203.04611778 4.95403481 C-204.05642677 4.95620951 -205.06673576 4.95838421 -206.10766017 4.96062481 C-208.11374931 4.96491638 -210.1198386 4.96913658 -212.12592804 4.97328269 C-218.076478 4.98733997 -224.02671424 5.01708305 -229.97712886 5.05939496 C-233.74112608 5.08497241 -237.50513732 5.10297674 -241.2691834 5.11963725 C-243.01665997 5.12928683 -244.76412114 5.14246456 -246.51154208 5.15942121 C-248.88865565 5.18220869 -251.26552769 5.19280437 -253.64273071 5.20053101 C-254.33576617 5.2103808 -255.02880162 5.22023059 -255.74283814 5.23037887 C-259.42955385 5.22852709 -261.79411197 4.76291848 -265 3 C-263.71139918 2.99668985 -262.42279837 2.99337971 -261.09514904 2.98996925 C-230.4806563 2.91088772 -199.86621184 2.82164366 -169.25178651 2.71994839 C-165.48060206 2.70743008 -161.70941733 2.69499722 -157.93823242 2.68261719 C-157.18748291 2.68015119 -156.43673341 2.6776852 -155.66323391 2.67514448 C-143.52007397 2.63546132 -131.37690477 2.60269435 -119.23371794 2.57250018 C-106.76621028 2.541345 -94.29874176 2.50271831 -81.83127815 2.45720994 C-74.14319818 2.429381 -66.45514672 2.40732383 -58.76703004 2.39273749 C-52.86376537 2.38091194 -46.96056816 2.35867232 -41.05734825 2.33261681 C-38.64153062 2.32356731 -36.22569774 2.31785695 -33.80986404 2.31578636 C-30.50303405 2.31244527 -27.19646965 2.2969178 -23.88969421 2.2784729 C-22.46697764 2.281375 -22.46697764 2.281375 -21.01551932 2.28433573 C-15.25557126 2.23654199 -9.86479269 1.57712281 -4.21872169 0.42770994 C-2 0 -2 0 0 0 Z " fill="#F7C308" transform="translate(629,749)"/>
<path d="M0 0 C0.33 0 0.66 0 1 0 C1.66 6.6 2.32 13.2 3 20 C3.33 20 3.66 20 4 20 C5.28630274 39.43235932 5.02942064 58.55599637 4 78 C-2.70019789 78.70132913 -9.26257354 79.11044961 -16 79 C-16 78.67 -16 78.34 -16 78 C-10.72 77.34 -5.44 76.68 0 76 C1.72066526 70.83800422 2.22947351 67.4305009 2.01171875 62.20703125 C1.98938171 61.46746185 1.96704468 60.72789246 1.94403076 59.96591187 C1.8691368 57.58095466 1.77860349 55.19688803 1.6875 52.8125 C1.63275707 51.17035485 1.57880416 49.52818318 1.52563477 47.88598633 C1.2262742 38.92675546 0.84516544 29.97375024 0.30761719 21.02539062 C-0.10043318 14.01223235 -0.09446879 7.02217976 0 0 Z " fill="#FCD82B" transform="translate(479,592)"/>
<path d="M0 0 C8.70968046 8.70968046 7.08960446 35.47537878 7.1340332 46.95727539 C7.12119008 51.63876686 7.07878166 56.31915725 7 61 C6.67 61 6.34 61 6 61 C5.89453857 59.87207031 5.78907715 58.74414062 5.68041992 57.58203125 C5.27963993 53.31698228 4.8690594 49.05291984 4.45581055 44.7890625 C4.27971641 42.95858079 4.10613032 41.12785571 3.93530273 39.296875 C2.95468315 28.80625845 1.73166067 18.55091143 -0.51831055 8.25 C-0.98404642 5.10764019 -0.85424632 3.030942 0 0 Z " fill="#FCDC34" transform="translate(472,531)"/>
<path d="M0 0 C0.33 0 0.66 0 1 0 C1.14131607 12.9127555 0.72021463 25.73364147 0 38.625 C-0.09679351 40.42185139 -0.19314961 42.21872639 -0.2890625 44.015625 C-0.52102818 48.34403737 -0.75881231 52.67209212 -1 57 C-0.34 57.33 0.32 57.66 1 58 C1.33 58.99 1.66 59.98 2 61 C5.3 61.33 8.6 61.66 12 62 C12 62.33 12 62.66 12 63 C9.68756208 63.02685412 7.3750373 63.04632841 5.0625 63.0625 C3.77472656 63.07410156 2.48695313 63.08570313 1.16015625 63.09765625 C-2 63 -2 63 -3 62 C-3.04175985 60.40931219 -3.00978658 58.81664524 -2.94921875 57.2265625 C-2.91111084 56.18991455 -2.87300293 55.1532666 -2.83374023 54.08520508 C-2.78548096 52.9433374 -2.73722168 51.80146973 -2.6875 50.625 C-2.64117432 49.45155029 -2.59484863 48.27810059 -2.54711914 47.0690918 C-1.89513172 31.36951944 -0.9447642 15.68418584 0 0 Z " fill="#FCE466" transform="translate(511,609)"/>
<path d="M0 0 C0.33 0 0.66 0 1 0 C2.19388403 29.13902594 2.19388403 29.13902594 2 42 C-4.70019789 42.70132913 -11.26257354 43.11044961 -18 43 C-18 42.67 -18 42.34 -18 42 C-10.08 41.01 -10.08 41.01 -2 40 C-0.28521792 34.85565376 0.2712223 31.21789339 0.1953125 25.9765625 C0.19106766 24.85729874 0.19106766 24.85729874 0.18673706 23.71542358 C0.17561687 21.35178012 0.15052821 18.98852732 0.125 16.625 C0.11495962 15.01432842 0.10583562 13.40365085 0.09765625 11.79296875 C0.0757044 7.86183056 0.04123185 3.93098133 0 0 Z " fill="#FCDD5C" transform="translate(481,628)"/>
<path d="M0 0 C4.15303131 3.81629904 7.77787344 7.30877927 8.1328125 13.20703125 C7.88760091 17.55593097 7.33644994 19.57728084 4.5625 23.0625 C2 25 2 25 0 25 C0 24.34 0 23.68 0 23 C-0.66 22.67 -1.32 22.34 -2 22 C-1.21625 21.773125 -0.4325 21.54625 0.375 21.3125 C3.13345791 20.23340779 3.13345791 20.23340779 4.27734375 17.80078125 C5.21075608 14.18317778 4.48823824 12.34653549 3.1875 8.875 C2.80980469 7.84117187 2.43210937 6.80734375 2.04296875 5.7421875 C1.69878906 4.83726562 1.35460937 3.93234375 1 3 C0.67 2.01 0.34 1.02 0 0 Z " fill="#F7CF36" transform="translate(629,726)"/>
<path d="M0 0 C0.33 0 0.66 0 1 0 C1.49257037 33.54951546 1.49257037 33.54951546 -2 43 C-2.99 43.495 -2.99 43.495 -4 44 C-3.67 35.75 -3.34 27.5 -3 19 C-2.67 19 -2.34 19 -2 19 C-1.34 12.73 -0.68 6.46 0 0 Z " fill="#FDDA34" transform="translate(513,573)"/>
<path d="M0 0 C0 0.66 0 1.32 0 2 C0.99 2.33 1.98 2.66 3 3 C1.42412109 2.7834375 1.42412109 2.7834375 -0.18359375 2.5625 C-13.1318422 0.54089494 -13.1318422 0.54089494 -26 2 C-25.25 0.0625 -25.25 0.0625 -24 -2 C-16.66530194 -4.65842768 -7.33695577 -1.60788605 0 0 Z " fill="#FBDE2C" transform="translate(262,290)"/>
<path d="M0 0 C0.66 0.33 1.32 0.66 2 1 C-1.42828083 4.7307762 -4.4204864 6.88637834 -9 9 C-11.29173401 10.35747311 -13.5781532 11.7213988 -15.8515625 13.109375 C-18.37948316 14.15731302 -19.47799362 13.93576707 -22 13 C-9.7984359 5.39995312 -9.7984359 5.39995312 -3.8125 1.9375 C-3.11769531 1.53402344 -2.42289063 1.13054687 -1.70703125 0.71484375 C-1.14371094 0.47894531 -0.58039062 0.24304688 0 0 Z " fill="#FDE12F" transform="translate(635,313)"/>
<path d="M0 0 C2.96175123 0.61277612 4.38058783 1.25372522 7 3 C7 3.66 7 4.32 7 5 C7.85658203 5.37511719 7.85658203 5.37511719 8.73046875 5.7578125 C11.32526745 7.17802934 13.1895481 8.81802649 15.3125 10.875 C16.03050781 11.55304688 16.74851562 12.23109375 17.48828125 12.9296875 C19 15 19 15 18.73046875 17.2578125 C18.48941406 17.83273437 18.24835938 18.40765625 18 19 C16.84806377 17.90220176 15.70365063 16.79650554 14.5625 15.6875 C13.92441406 15.07261719 13.28632813 14.45773437 12.62890625 13.82421875 C11 12 11 12 10 9 C9.2575 8.566875 8.515 8.13375 7.75 7.6875 C4.29542258 5.56764567 2.4801191 3.18872456 0 0 Z " fill="#FEE02A" transform="translate(418,358)"/>
<path d="M0 0 C0 0.33 0 0.66 0 1 C-4.18613079 1.67545765 -8.37409696 2.33879077 -12.5625 3 C-13.74392578 3.19078125 -14.92535156 3.3815625 -16.14257812 3.578125 C-21.81843825 4.468456 -27.25182969 5.27010492 -33 5 C-33 4.67 -33 4.34 -33 4 C-29.7 3.67 -26.4 3.34 -23 3 C-23 2.34 -23 1.68 -23 1 C-15.07809753 -0.50242978 -7.98902187 -1.3345093 0 0 Z " fill="#FDDE32" transform="translate(579,527)"/>
<path d="M0 0 C8.49163085 1.4897598 16.0894839 4.68571262 24 8 C21.58959839 9.53690745 20.49917715 10.09752136 17.640625 9.5390625 C16.85171875 9.23742187 16.0628125 8.93578125 15.25 8.625 C14.45078125 8.32851563 13.6515625 8.03203125 12.828125 7.7265625 C12.22484375 7.48679687 11.6215625 7.24703125 11 7 C11 6.34 11 5.68 11 5 C9.1128125 4.8453125 9.1128125 4.8453125 7.1875 4.6875 C4.44294926 4.35232478 3.24670621 4.18502965 1 2.5 C0 1 0 1 0 0 Z " fill="#FDE232" transform="translate(325,307)"/>
<path d="M0 0 C0.66 0.33 1.32 0.66 2 1 C-1.90510489 6.50719921 -6.09717644 11.35827355 -11 16 C-11.99 15.34 -12.98 14.68 -14 14 C-10.12814498 9.03918575 -5.79125711 5.06361292 -1 1 C-0.67 0.67 -0.34 0.34 0 0 Z " fill="#FDE02B" transform="translate(621,411)"/>
<path d="M0 0 C3.57570338 3.31055043 5.49279367 7.2348057 7.75 11.5 C8.17410156 12.27214844 8.59820312 13.04429687 9.03515625 13.83984375 C9.43089844 14.58363281 9.82664062 15.32742188 10.234375 16.09375 C10.59756836 16.77115234 10.96076172 17.44855469 11.33496094 18.14648438 C12 20 12 20 11 23 C7.62104523 21.31052261 6.55775938 17.58490221 4.9375 14.3125 C4.39125977 13.24999023 4.39125977 13.24999023 3.83398438 12.16601562 C1.80593986 8.10617789 0.46850692 4.57695226 0 0 Z " fill="#FDE22E" transform="translate(418,459)"/>
<path d="M0 0 C1.98 0.99 1.98 0.99 4 2 C4 3.32 4 4.64 4 6 C4.99 6.33 5.98 6.66 7 7 C8.82421875 9.43359375 8.82421875 9.43359375 10.6875 12.4375 C11.31011719 13.42621094 11.93273437 14.41492188 12.57421875 15.43359375 C14 18 14 18 14 20 C14.66 20.33 15.32 20.66 16 21 C15.34 21.66 14.68 22.32 14 23 C0 3.38297872 0 3.38297872 0 0 Z " fill="#FDDF2F" transform="translate(265,403)"/>
<path d="M0 0 C1.43737319 3.87801359 0.58506211 6.91892055 -0.3125 10.875 C-0.70888672 12.66550781 -0.70888672 12.66550781 -1.11328125 14.4921875 C-1.93129507 17.72820694 -2.89739194 20.85106693 -4 24 C-4.66 24 -5.32 24 -6 24 C-6.33 24.66 -6.66 25.32 -7 26 C-5.55993623 17.05870856 -2.79194029 8.58894609 0 0 Z " fill="#FEE132" transform="translate(507,477)"/>
<path d="M0 0 C0.66 0.33 1.32 0.66 2 1 C1.01 1.99 0.02 2.98 -1 4 C-0.67 4.66 -0.34 5.32 0 6 C-3.75 9 -3.75 9 -6 9 C-6.20625 9.5775 -6.4125 10.155 -6.625 10.75 C-8.82216985 14.34536885 -12.29110653 16.14555326 -16 18 C-14.6415798 14.95667235 -13.11536976 12.87690849 -10.7421875 10.546875 C-10.11699219 9.928125 -9.49179687 9.309375 -8.84765625 8.671875 C-8.19667969 8.03765625 -7.54570312 7.4034375 -6.875 6.75 C-6.21628906 6.1003125 -5.55757813 5.450625 -4.87890625 4.78125 C-3.25703357 3.18288273 -1.6306719 1.58938103 0 0 Z " fill="#FAD035" transform="translate(378,706)"/>
<path d="M0 0 C0.99 0 1.98 0 3 0 C1.51991304 5.00113594 -0.6318336 9.32915597 -3.125 13.875 C-3.49753906 14.56335938 -3.87007812 15.25171875 -4.25390625 15.9609375 C-5.16499526 17.64294798 -6.08190315 19.32180436 -7 21 C-7.33 21 -7.66 21 -8 21 C-7.4943565 15.46640844 -6.04383132 11.43969425 -3.4375 6.5625 C-3.10814453 5.92634766 -2.77878906 5.29019531 -2.43945312 4.63476562 C-1.63546752 3.08505424 -0.81902334 1.54181678 0 0 Z " fill="#FDDF27" transform="translate(765,381)"/>
<path d="M0 0 C-1.65 0.33 -3.3 0.66 -5 1 C-5 1.66 -5 2.32 -5 3 C-7.70647467 3.67511172 -10.41477185 4.34027341 -13.125 5 C-14.26582031 5.28617188 -14.26582031 5.28617188 -15.4296875 5.578125 C-19.71588834 6.6127252 -23.55400901 7.2272711 -28 7 C-28 6.67 -28 6.34 -28 6 C-26.87851562 5.70996094 -26.87851562 5.70996094 -25.734375 5.4140625 C-24.74953125 5.15367187 -23.7646875 4.89328125 -22.75 4.625 C-21.77546875 4.36976563 -20.8009375 4.11453125 -19.796875 3.8515625 C-17.32658686 3.09943566 -15.29072138 2.1593285 -13 1 C-11.51450964 0.55278371 -10.01261867 0.15698336 -8.5 -0.1875 C-7.37078125 -0.45626953 -7.37078125 -0.45626953 -6.21875 -0.73046875 C-3.85166621 -1.01801942 -2.25455985 -0.72248395 0 0 Z " fill="#FDDC2F" transform="translate(607,520)"/>
<path d="M0 0 C2.97 0.495 2.97 0.495 6 1 C6 1.99 6 2.98 6 4 C7.99275175 5.91507778 7.99275175 5.91507778 10.5 7.6875 C11.3353125 8.31011719 12.170625 8.93273437 13.03125 9.57421875 C13.6809375 10.04472656 14.330625 10.51523437 15 11 C13.2890625 11.671875 13.2890625 11.671875 11 12 C8.7109375 10.890625 8.7109375 10.890625 6.375 9.25 C5.59898437 8.71890625 4.82296875 8.1878125 4.0234375 7.640625 C2 6 2 6 0 3 C0 2.01 0 1.02 0 0 Z " fill="#FDE02E" transform="translate(340,378)"/>
<path d="M0 0 C0.33 0 0.66 0 1 0 C0.39174965 4.34464536 -0.26167392 8.67551867 -1 13 C-1.66 13 -2.32 13 -3 13 C-3.66 15.64 -4.32 18.28 -5 21 C-7 18 -7 18 -6.6796875 16.0546875 C-6.28136719 14.97574219 -6.28136719 14.97574219 -5.875 13.875 C-5.58753906 13.08996094 -5.30007813 12.30492187 -5.00390625 11.49609375 C-3.44260779 7.61411043 -1.76637368 3.79277191 0 0 Z " fill="#FEDE2C" transform="translate(529,499)"/>
<path d="M0 0 C5.2769592 -0.48845905 8.49943159 1.00433345 12.8125 3.8125 C13.39708984 4.16892578 13.98167969 4.52535156 14.58398438 4.89257812 C18.86547135 7.59641405 18.86547135 7.59641405 20 11 C15.50675151 9.34229667 11.38813854 7.15017838 7.1875 4.875 C6.49462891 4.50246094 5.80175781 4.12992187 5.08789062 3.74609375 C3.39065164 2.83309623 1.69514862 1.91687284 0 1 C0 0.67 0 0.34 0 0 Z " fill="#FDE02B" transform="translate(351,382)"/>
<path d="M0 0 C0.66 0.33 1.32 0.66 2 1 C-1.02295271 4.25548753 -4.20462309 6.68977058 -8 9 C-8.66 9 -9.32 9 -10 9 C-10.66 10.32 -11.32 11.64 -12 13 C-12.66 11.68 -13.32 10.36 -14 9 C-11.71439353 7.4693001 -9.42237333 5.95034956 -7.125 4.4375 C-6.14853516 3.78104492 -6.14853516 3.78104492 -5.15234375 3.11132812 C-3.47374503 2.01245164 -1.73976613 0.9992182 0 0 Z " fill="#FBD12E" transform="translate(402,690)"/>
<path d="M0 0 C6.13602988 1.41600689 10.26698362 5.0663375 15 9 C14.67 10.32 14.34 11.64 14 13 C11.66270866 11.02546836 9.33085338 9.04462531 7 7.0625 C6.33226562 6.49853516 5.66453125 5.93457031 4.9765625 5.35351562 C4.34492188 4.81533203 3.71328125 4.27714844 3.0625 3.72265625 C2.47597656 3.22515869 1.88945312 2.72766113 1.28515625 2.21508789 C0.86105469 1.81410889 0.43695313 1.41312988 0 1 C0 0.67 0 0.34 0 0 Z " fill="#FEE02B" transform="translate(389,406)"/>
<path d="M0 0 C-0.66 0 -1.32 0 -2 0 C-2 0.66 -2 1.32 -2 2 C-5.50776784 3.60355101 -8.14354879 4.22036864 -12 4 C-12.33 4.66 -12.66 5.32 -13 6 C-13.66 5.67 -14.32 5.34 -15 5 C-15 5.66 -15 6.32 -15 7 C-15.99 7.33 -16.98 7.66 -18 8 C-18.66 7.34 -19.32 6.68 -20 6 C-4.15727003 -1.38575668 -4.15727003 -1.38575668 0 0 Z " fill="#FBD63D" transform="translate(434,678)"/>
<path d="M0 0 C0.66 0.99 1.32 1.98 2 3 C1.21516341 4.48280196 0.42190666 5.9611498 -0.375 7.4375 C-0.81585937 8.26121094 -1.25671875 9.08492188 -1.7109375 9.93359375 C-3 12 -3 12 -5 13 C-5.72159424 14.64363134 -6.39351421 16.31050386 -7 18 C-7.66 18 -8.32 18 -9 18 C-7.65072455 13.46152802 -5.80840652 9.68067754 -3.375 5.625 C-2.74335937 4.56539063 -2.11171875 3.50578125 -1.4609375 2.4140625 C-0.73777344 1.21910156 -0.73777344 1.21910156 0 0 Z " fill="#FDE130" transform="translate(540,404)"/>
<path d="M0 0 C2.53222163 0.77158283 4.73351154 1.60287544 7.125 2.6875 C7.77082031 2.95755859 8.41664063 3.22761719 9.08203125 3.50585938 C10.76495597 4.24500556 12.38848055 5.11593115 14 6 C14.33 6.99 14.66 7.98 15 9 C10.66695924 8.35534798 7.13327935 6.81074878 3.1875 4.9375 C2.02605469 4.38964844 0.86460937 3.84179688 -0.33203125 3.27734375 C-1.21246094 2.85582031 -2.09289062 2.43429687 -3 2 C-2.01 1.34 -1.02 0.68 0 0 Z " fill="#FCDD30" transform="translate(352,485)"/>
<path d="M0 0 C4.12172083 3.76843047 7.63068221 7.88904305 10 13 C9.67 13.66 9.34 14.32 9 15 C8.34 15 7.68 15 7 15 C4 10.61538462 4 10.61538462 4 8 C3.34 8 2.68 8 2 8 C0.23537317 4.91190305 0 3.76687864 0 0 Z " fill="#FEE02D" transform="translate(445,385)"/>
<path d="M0 0 C0.99 0.33 1.98 0.66 3 1 C4.51233701 7.46794133 5.21432579 13.35590042 5 20 C2.83614399 16.75421598 2.2255829 14.34716433 1.375 10.5625 C0.98441406 8.86287109 0.98441406 8.86287109 0.5859375 7.12890625 C0 4 0 4 0 0 Z " fill="#FCDD32" transform="translate(233,317)"/>
<path d="M0 0 C0.33 0 0.66 0 1 0 C1 1.65 1 3.3 1 5 C1.66 5.33 2.32 5.66 3 6 C3.33 6.99 3.66 7.98 4 9 C7.3 9.33 10.6 9.66 14 10 C14 10.33 14 10.66 14 11 C11.68756208 11.02685412 9.3750373 11.04632841 7.0625 11.0625 C5.77472656 11.07410156 4.48695313 11.08570313 3.16015625 11.09765625 C0 11 0 11 -1 10 C-1.0979057 8.50261876 -1.12974864 7.00057108 -1.125 5.5 C-1.12757813 4.6853125 -1.13015625 3.870625 -1.1328125 3.03125 C-1 1 -1 1 0 0 Z " fill="#FCDB48" transform="translate(509,661)"/>
<path d="M0 0 C1.29132785 3.87398355 0.41113572 6.81988786 -0.4375 10.6875 C-0.58509766 11.38939453 -0.73269531 12.09128906 -0.88476562 12.81445312 C-1.2495932 14.54444194 -1.62388689 16.27242963 -2 18 C-2.33 18 -2.66 18 -3 18 C-3.85330338 12.16524985 -4.48351814 7.55139349 -2 2 C-1.34 2 -0.68 2 0 2 C0 1.34 0 0.68 0 0 Z " fill="#FEDF33" transform="translate(520,527)"/>
<path d="M0 0 C1.32 0.33 2.64 0.66 4 1 C1.71439353 2.5306999 -0.57762667 4.04965044 -2.875 5.5625 C-3.52597656 6.00013672 -4.17695312 6.43777344 -4.84765625 6.88867188 C-6.52625497 7.98754836 -8.26023387 9.0007818 -10 10 C-10.66 9.67 -11.32 9.34 -12 9 C-6.62903226 3.33064516 -6.62903226 3.33064516 -3 2 C-2.01 2 -1.02 2 0 2 C0 1.34 0 0.68 0 0 Z " fill="#FEE230" transform="translate(626,395)"/>
<path d="M0 0 C4.46182436 1.31074365 7.99618757 3.07066011 11.875 5.625 C12.84179688 6.25664063 13.80859375 6.88828125 14.8046875 7.5390625 C15.52914062 8.02117188 16.25359375 8.50328125 17 9 C16.01 9.495 16.01 9.495 15 10 C11.4375 8.75 11.4375 8.75 8 7 C7.67 6.01 7.34 5.02 7 4 C5.35 4 3.7 4 2 4 C1.34 2.68 0.68 1.36 0 0 Z " fill="#FCD438" transform="translate(585,692)"/>
<path d="M0 0 C2.40575607 2.18517099 3.79535581 4.25919671 5.1875 7.1875 C5.53167969 7.90292969 5.87585938 8.61835938 6.23046875 9.35546875 C6.48441406 9.89816406 6.73835938 10.44085938 7 11 C6.01 12.485 6.01 12.485 5 14 C4.566875 13.030625 4.13375 12.06125 3.6875 11.0625 C2.2985139 7.72268235 2.2985139 7.72268235 -1 7 C-0.67 4.69 -0.34 2.38 0 0 Z " fill="#FCDE2C" transform="translate(259,389)"/>
<path d="M0 0 C-0.639375 0.12375 -1.27875 0.2475 -1.9375 0.375 C-2.618125 0.58125 -3.29875 0.7875 -4 1 C-4.33 1.66 -4.66 2.32 -5 3 C-8.5590627 4.62700009 -12.28176767 5.78941273 -16 7 C-15.4375 5.1875 -15.4375 5.1875 -14 3 C-4.8 -1.6 -4.8 -1.6 0 0 Z " fill="#FEE331" transform="translate(650,386)"/>
<path d="M0 0 C-0.66 0 -1.32 0 -2 0 C-2 0.66 -2 1.32 -2 2 C-3.76586761 2.5576424 -5.53795256 3.09562787 -7.3125 3.625 C-8.29863281 3.92664063 -9.28476562 4.22828125 -10.30078125 4.5390625 C-13 5 -13 5 -16 3 C-13.89936424 2.30178583 -11.79434263 1.61675528 -9.6875 0.9375 C-8.51574219 0.55464844 -7.34398437 0.17179687 -6.13671875 -0.22265625 C-3 -1 -3 -1 0 0 Z " fill="#FDE33A" transform="translate(697,292)"/>
<path d="M0 0 C0.6875 1.6875 0.6875 1.6875 1 4 C-0.55431791 7.18635171 -2.37599478 9.62590004 -5 12 C-5.66 11.67 -6.32 11.34 -7 11 C-5.5140084 6.40693504 -3.14985318 3.56430755 0 0 Z " fill="#F8CD32" transform="translate(361,724)"/>
<path d="M0 0 C5.29482277 -0.19253901 9.74379405 0.29093372 14.87890625 1.5546875 C17.61226467 2.12854175 20.21838773 2.14264678 23 2 C23 2.66 23 3.32 23 4 C20.4783624 3.88496731 17.9581881 3.75825223 15.4375 3.625 C14.38079102 3.57859375 14.38079102 3.57859375 13.30273438 3.53125 C8.58704259 3.27047442 4.49614504 2.45341877 0 1 C0 0.67 0 0.34 0 0 Z " fill="#FCD509" transform="translate(417,506)"/>
<path d="M0 0 C0.33 0.99 0.66 1.98 1 3 C-1.60213075 7.39231845 -5.00076875 10.67667408 -10 12 C-8.52278578 8.54798361 -6.56205999 6.35038064 -3.875 3.75 C-3.15054688 3.04359375 -2.42609375 2.3371875 -1.6796875 1.609375 C-1.12539063 1.07828125 -0.57109375 0.5471875 0 0 Z " fill="#FDE12E" transform="translate(578,355)"/>
<path d="M0 0 C5.51175932 1.18881083 8.23216888 2.5672575 12 7 C12.33 7.66 12.66 8.32 13 9 C8.53117549 7.78122968 6.05486436 6.47622496 3 3 C2.4225 2.4225 1.845 1.845 1.25 1.25 C0.8375 0.8375 0.425 0.425 0 0 Z " fill="#FBCD24" transform="translate(598,701)"/>
<path d="M0 0 C1 2 1 2 0.328125 4.27734375 C-0.02765625 5.15519531 -0.3834375 6.03304688 -0.75 6.9375 C-1.26820313 8.25041016 -1.26820313 8.25041016 -1.796875 9.58984375 C-2.95642525 11.91270902 -4.05798473 13.30910739 -6 15 C-6.33 14.34 -6.66 13.68 -7 13 C-5.92325298 10.71741367 -4.80453884 8.5643566 -3.5625 6.375 C-3.22412109 5.76398438 -2.88574219 5.15296875 -2.53710938 4.5234375 C-1.69853808 3.011647 -0.85017423 1.50529601 0 0 Z " fill="#FDE134" transform="translate(559,485)"/>
<path d="M0 0 C3.96189783 4.23513217 5.43181728 8.547001 7 14 C4 13 4 13 2.578125 10.56640625 C2.13984375 9.57511719 1.7015625 8.58382813 1.25 7.5625 C0.80140625 6.57378906 0.3528125 5.58507812 -0.109375 4.56640625 C-0.40328125 3.71949219 -0.6971875 2.87257813 -1 2 C-0.67 1.34 -0.34 0.68 0 0 Z " fill="#FEE22F" transform="translate(455,400)"/>
<path d="M0 0 C1.25955231 3.77865693 0.48087189 5.03411786 -0.9375 8.6875 C-1.31777344 9.68136719 -1.69804688 10.67523438 -2.08984375 11.69921875 C-2.39019531 12.45847656 -2.69054687 13.21773438 -3 14 C-5 11 -5 11 -4.609375 8.5546875 C-4.32578125 7.67039062 -4.0421875 6.78609375 -3.75 5.875 C-3.47671875 4.98554688 -3.2034375 4.09609375 -2.921875 3.1796875 C-2 1 -2 1 0 0 Z " fill="#FDE031" transform="translate(780,348)"/>
<path d="M0 0 C-0.66 0 -1.32 0 -2 0 C-2 0.66 -2 1.32 -2 2 C-5.28491373 4.18994248 -6.83095639 4.35277339 -10.6875 4.625 C-12.17830078 4.73714844 -12.17830078 4.73714844 -13.69921875 4.8515625 C-14.45847656 4.90054687 -15.21773437 4.94953125 -16 5 C-13.63746991 2.63746991 -11.68772729 1.962152 -8.5625 0.8125 C-7.59441406 0.44769531 -6.62632812 0.08289063 -5.62890625 -0.29296875 C-3 -1 -3 -1 0 0 Z " fill="#FDE338" transform="translate(669,301)"/>
<path d="M0 0 C0.33 0 0.66 0 1 0 C1.5304408 2.26860837 2.04905434 4.53998489 2.5625 6.8125 C2.85253906 8.07707031 3.14257812 9.34164063 3.44140625 10.64453125 C4 14 4 14 3 17 C2.34 17 1.68 17 1 17 C1 15.35 1 13.7 1 12 C0.67 12 0.34 12 0 12 C-0.76173392 7.6835078 -1.16063604 4.25566547 0 0 Z " fill="#FDE136" transform="translate(490,501)"/>
<path d="M0 0 C9.59453303 2.89066059 9.59453303 2.89066059 13 6 C9.42423881 7.1919204 8.70817048 6.74829813 5.375 5.25 C4.57835937 4.90453125 3.78171875 4.5590625 2.9609375 4.203125 C1 3 1 3 0 0 Z " fill="#FCD434" transform="translate(566,683)"/>
<path d="M0 0 C1.73694677 2.60542016 2.69100448 4.58342775 3.6875 7.5 C3.95949219 8.2734375 4.23148437 9.046875 4.51171875 9.84375 C5 12 5 12 4 15 C1.28511051 10.62114598 -0.63355105 7.25243495 -1 2 C-0.67 1.34 -0.34 0.68 0 0 Z " fill="#FEE337" transform="translate(475,448)"/>
<path d="M0 0 C2.64 0 5.28 0 8 0 C7.875 1.875 7.875 1.875 7 4 C3.9375 5.25 3.9375 5.25 1 6 C0.34 5.34 -0.32 4.68 -1 4 C-0.625 1.875 -0.625 1.875 0 0 Z " fill="#FCDF2D" transform="translate(656,381)"/>
<path d="M0 0 C0.66 0.33 1.32 0.66 2 1 C0.76210371 4.71368887 -0.85224877 5.77354181 -4 8 C-4.66 8 -5.32 8 -6 8 C-7.62514468 9.45833358 -7.62514468 9.45833358 -9 11 C-9.66 10.67 -10.32 10.34 -11 10 C-5.555 5.05 -5.555 5.05 0 0 Z " fill="#FEE238" transform="translate(596,338)"/>
<path d="M0 0 C-2 3 -2 3 -5.125 3.75 C-9.32119001 4.02072194 -12.85840914 3.6539354 -17 3 C-17 2.67 -17 2.34 -17 2 C-5.47835991 -0.29612756 -5.47835991 -0.29612756 0 0 Z " fill="#FDE345" transform="translate(771,276)"/>
<path d="M0 0 C0 0.66 0 1.32 0 2 C3.3 2.66 6.6 3.32 10 4 C5.3233907 5.16915233 3.30322949 4.45376457 -1.25 3.0625 C-2.51328125 2.68222656 -3.7765625 2.30195313 -5.078125 1.91015625 C-6.04234375 1.60980469 -7.0065625 1.30945313 -8 1 C-4.84227798 -0.73807388 -3.46421706 -1.23722038 0 0 Z " fill="#FDE245" transform="translate(386,498)"/>
<path d="M0 0 C4.59306496 1.4859916 7.43569245 3.85014682 11 7 C10.01 7.33 9.02 7.66 8 8 C5.95703125 6.85546875 5.95703125 6.85546875 3.8125 5.1875 C3.09707031 4.64480469 2.38164062 4.10210937 1.64453125 3.54296875 C1.10183594 3.03378906 0.55914062 2.52460938 0 2 C0 1.34 0 0.68 0 0 Z " fill="#FEE02E" transform="translate(400,343)"/>
<path d="M0 0 C2.31966166 2.84685749 3.91581154 5.4763875 5 9 C4.67 9.99 4.34 10.98 4 12 C0.55606935 9.33878086 -0.09770622 6.13551317 -1 2 C-0.67 1.34 -0.34 0.68 0 0 Z " fill="#FEE130" transform="translate(430,482)"/>
<path d="M0 0 C1.60226148 4.00565371 0.47694566 7.08609399 -1 11 C-1.99 11.33 -2.98 11.66 -4 12 C-3.67 9.36 -3.34 6.72 -3 4 C-2.34 4 -1.68 4 -1 4 C-0.67 2.68 -0.34 1.36 0 0 Z " fill="#FDE133" transform="translate(547,508)"/>
<path d="M0 0 C3.93673644 1.31224548 6.22719294 2.91910327 9 6 C8.01 6.495 8.01 6.495 7 7 C4.8359375 6.00390625 4.8359375 6.00390625 2.375 4.5625 C1.55773437 4.08941406 0.74046875 3.61632812 -0.1015625 3.12890625 C-0.72804688 2.75636719 -1.35453125 2.38382812 -2 2 C-1.34 1.34 -0.68 0.68 0 0 Z " fill="#FDDF32" transform="translate(340,479)"/>
<path d="M0 0 C1.41805831 0.28482368 2.83440379 0.57818144 4.25 0.875 C5.03890625 1.03742188 5.8278125 1.19984375 6.640625 1.3671875 C8.96831144 1.99150075 10.89031952 2.84838542 13 4 C8.54033047 5.03713245 6.13161346 4.95103969 2 3 C1.34 3 0.68 3 0 3 C0 2.01 0 1.02 0 0 Z " fill="#FDE23C" transform="translate(312,303)"/>
<path d="M0 0 C1.4391134 0.28359887 2.87625518 0.57721399 4.3125 0.875 C5.11300781 1.03742187 5.91351562 1.19984375 6.73828125 1.3671875 C9 2 9 2 12 4 C10.56344146 4.08131463 9.1255517 4.13933559 7.6875 4.1875 C6.48673828 4.23970703 6.48673828 4.23970703 5.26171875 4.29296875 C2.51075586 3.93662641 1.67775411 3.15556111 0 1 C0 0.67 0 0.34 0 0 Z " fill="#FDD636" transform="translate(554,679)"/>
<path d="M0 0 C3.26566506 4.89849759 3.09311493 8.31998909 3 14 C-0.13269705 10.86730295 -0.05494397 8.02671577 -0.0625 3.75 C-0.0315625 1.89375 -0.0315625 1.89375 0 0 Z " fill="#FDE132" transform="translate(480,464)"/>
<path d="M0 0 C-3.46008142 2.30672095 -5.92481479 2.48134006 -10 3 C-10.99 3.495 -10.99 3.495 -12 4 C-14.125 3.0625 -14.125 3.0625 -16 2 C-10.54538831 0.61470179 -5.63281599 -0.2396943 0 0 Z " fill="#FBCA0E" transform="translate(463,672)"/>
<path d="M0 0 C0.33 0 0.66 0 1 0 C1.36666667 5.5 1.36666667 5.5 -0.375 7.875 C-2 9 -2 9 -4 9 C-4 8.34 -4 7.68 -4 7 C-4.66 6.67 -5.32 6.34 -6 6 C-5.195625 5.7525 -4.39125 5.505 -3.5625 5.25 C-0.828919 4.27761141 -0.828919 4.27761141 -0.1875 1.875 C-0.125625 1.25625 -0.06375 0.6375 0 0 Z " fill="#F8CA2B" transform="translate(633,742)"/>
<path d="M0 0 C4.75 0.75 4.75 0.75 7 3 C7 3.99 7 4.98 7 6 C5.1875 5.8125 5.1875 5.8125 3 5 C1.25 2.4375 1.25 2.4375 0 0 Z " fill="#FACC2B" transform="translate(613,712)"/>
<path d="M0 0 C0.99 0 1.98 0 3 0 C3.268125 0.928125 3.53625 1.85625 3.8125 2.8125 C4.91148371 5.76240366 5.62418561 7.05615186 8 9 C7.01 9.33 6.02 9.66 5 10 C4.16121545 8.71186658 3.32913217 7.41936744 2.5 6.125 C2.0359375 5.40570313 1.571875 4.68640625 1.09375 3.9453125 C0 2 0 2 0 0 Z " fill="#FEE230" transform="translate(441,463)"/>
<path d="M0 0 C0.66 0.33 1.32 0.66 2 1 C0.35 2.98 -1.3 4.96 -3 7 C-4.32 6.67 -5.64 6.34 -7 6 C-4.69 4.02 -2.38 2.04 0 0 Z " fill="#FDE134" transform="translate(605,331)"/>
<path d="M0 0 C2.12046792 3.53411321 2.53199289 6.94393835 3 11 C2.01 11 1.02 11 0 11 C-0.84098656 6.98195309 -1.05404945 3.98196457 0 0 Z " fill="#FDE139" transform="translate(485,482)"/>
<path d="M0 0 C0.99 0 1.98 0 3 0 C2.01 2.97 1.02 5.94 0 9 C-2 5 -2 5 -1.125 2.25 C-0.75375 1.5075 -0.3825 0.765 0 0 Z " fill="#FEE02E" transform="translate(771,367)"/>
<path d="M0 0 C1.9375 0.6875 1.9375 0.6875 4 2 C4.875 4.4375 4.875 4.4375 5 7 C4.01 8.485 4.01 8.485 3 10 C2.566875 8.2984375 2.566875 8.2984375 2.125 6.5625 C1.75375 5.386875 1.3825 4.21125 1 3 C0.34 2.67 -0.32 2.34 -1 2 C-0.67 1.34 -0.34 0.68 0 0 Z " fill="#FDE138" transform="translate(459,497)"/>
<path d="M0 0 C3 2 3 2 3.73046875 4.1640625 C3.88128906 4.97617187 4.03210938 5.78828125 4.1875 6.625 C4.34605469 7.44226563 4.50460937 8.25953125 4.66796875 9.1015625 C4.83232422 10.04128906 4.83232422 10.04128906 5 11 C4.01 11 3.02 11 2 11 C1.34 7.37 0.68 3.74 0 0 Z " fill="#FEDB12" transform="translate(435,497)"/>
<path d="M0 0 C-1.28524261 0.86380259 -2.57842419 1.71580369 -3.875 2.5625 C-4.59429688 3.03816406 -5.31359375 3.51382812 -6.0546875 4.00390625 C-6.69664062 4.33261719 -7.33859375 4.66132813 -8 5 C-8.66 4.67 -9.32 4.34 -10 4 C-4.4 -2.2 -4.4 -2.2 0 0 Z " fill="#FDDF32" transform="translate(670,494)"/>
<path d="M0 0 C5.37305699 -0.35233161 5.37305699 -0.35233161 8 0 C10 2 10 2 11 4 C9.53984709 3.71758359 8.08190207 3.42373386 6.625 3.125 C5.81289063 2.96257812 5.00078125 2.80015625 4.1640625 2.6328125 C2 2 2 2 0 0 Z " fill="#FDE141" transform="translate(367,494)"/>
<path d="M0 0 C0.99 0.33 1.98 0.66 3 1 C3.33 3.31 3.66 5.62 4 8 C3.01 8.495 3.01 8.495 2 9 C1.34 6.03 0.68 3.06 0 0 Z " fill="#FEE02E" transform="translate(465,512)"/>
<path d="M0 0 C0.33 0 0.66 0 1 0 C1.36923077 5.53846154 1.36923077 5.53846154 -0.5 7.875 C-1.2425 8.431875 -1.2425 8.431875 -2 9 C-3 6 -3 6 -1.5625 2.8125 C-1.046875 1.884375 -0.53125 0.95625 0 0 Z " fill="#FDE235" transform="translate(522,439)"/>
<path d="M0 0 C1.32 0.33 2.64 0.66 4 1 C4 1.66 4 2.32 4 3 C4.66 3 5.32 3 6 3 C5.67 4.32 5.34 5.64 5 7 C0 1.125 0 1.125 0 0 Z " fill="#FCDF32" transform="translate(285,433)"/>
<path d="M0 0 C0.66 0.33 1.32 0.66 2 1 C2 1.66 2 2.32 2 3 C0.03533587 4.06775224 -1.96855359 5.06553465 -4 6 C-4.66 5.67 -5.32 5.34 -6 5 C-4.02 3.35 -2.04 1.7 0 0 Z " fill="#FDE234" transform="translate(642,394)"/>
<path d="M0 0 C3.63 0.66 7.26 1.32 11 2 C6.82091936 4.08954032 6.19589427 4.16552619 2 3 C2 2.34 2 1.68 2 1 C1.34 0.67 0.68 0.34 0 0 Z " fill="#FDE33F" transform="translate(301,300)"/>
<path d="M0 0 C0.66 0.33 1.32 0.66 2 1 C0.68 2.65 -0.64 4.3 -2 6 C-3.32 5.67 -4.64 5.34 -6 5 C-4.02 3.35 -2.04 1.7 0 0 Z " fill="#FAD23C" transform="translate(386,700)"/>
<path d="M0 0 C-0.66 0 -1.32 0 -2 0 C-2 0.66 -2 1.32 -2 2 C-6.625 4.125 -6.625 4.125 -10 3 C-8.68 2.67 -7.36 2.34 -6 2 C-6 1.34 -6 0.68 -6 0 C-3 -1 -3 -1 0 0 Z " fill="#FBD22D" transform="translate(434,678)"/>
<path d="M0 0 C0 3 0 3 -2.5 5.6875 C-3.325 6.450625 -4.15 7.21375 -5 8 C-5.33 7.01 -5.66 6.02 -6 5 C-4.02 3.35 -2.04 1.7 0 0 Z " fill="#FDE334" transform="translate(556,457)"/>
<path d="M0 0 C2.97 1.98 2.97 1.98 6 4 C5.67 5.32 5.34 6.64 5 8 C0 2.25 0 2.25 0 0 Z " fill="#FEE33B" transform="translate(429,446)"/>
<path d="M0 0 C0.66 0.33 1.32 0.66 2 1 C0.68 2.65 -0.64 4.3 -2 6 C-3.32 5.67 -4.64 5.34 -6 5 C-4.02 3.35 -2.04 1.7 0 0 Z " fill="#FDE22D" transform="translate(650,388)"/>
<path d="M0 0 C3.64553172 1.2808625 5.16671013 2.16671013 8 5 C3.545 4.01 3.545 4.01 -1 3 C-0.67 2.01 -0.34 1.02 0 0 Z " fill="#FDE334" transform="translate(391,337)"/>
<path d="M0 0 C0.66 0.33 1.32 0.66 2 1 C1.67 1.66 1.34 2.32 1 3 C0.01 3 -0.98 3 -2 3 C-2 3.66 -2 4.32 -2 5 C-2.99 5.33 -3.98 5.66 -5 6 C-5.66 5.34 -6.32 4.68 -7 4 C-1.7265625 0.77734375 -1.7265625 0.77734375 0 0 Z " fill="#FCD538" transform="translate(411,685)"/>
<path d="M0 0 C1.32 1.65 2.64 3.3 4 5 C3.34 6.32 2.68 7.64 2 9 C0.4375 6.1875 0.4375 6.1875 -1 3 C-0.67 2.01 -0.34 1.02 0 0 Z " fill="#FEE337" transform="translate(452,480)"/>
<path d="M0 0 C0 2.83967231 -0.40267181 5.23735711 -1 8 C-1.99 8 -2.98 8 -4 8 C-2.25 2.25 -2.25 2.25 0 0 Z " fill="#FDE033" transform="translate(566,474)"/>
<path d="M0 0 C0.99 0.33 1.98 0.66 3 1 C0.03 3.475 0.03 3.475 -3 6 C-3.33 5.01 -3.66 4.02 -4 3 C-2.1875 1.4375 -2.1875 1.4375 0 0 Z " fill="#FDE031" transform="translate(586,424)"/>
<path d="M0 0 C0.99 0 1.98 0 3 0 C1.25 5.75 1.25 5.75 -1 8 C-1.125 2.25 -1.125 2.25 0 0 Z " fill="#FCE038" transform="translate(765,381)"/>
<path d="M0 0 C0.66 0.66 1.32 1.32 2 2 C1.01 2 0.02 2 -1 2 C-0.67 1.34 -0.34 0.68 0 0 Z " fill="#FDDE1A" transform="translate(644,389)"/>
<path d="M0 0 C1 4 1 4 1 4 Z " fill="#FAD418" transform="translate(511,650)"/>
<path d="M0 0 C1 4 1 4 1 4 Z " fill="#FDDB1E" transform="translate(475,572)"/>
<path d="M0 0 C0.99 0.495 0.99 0.495 2 1 C1.01 1.495 1.01 1.495 0 2 C0 1.34 0 0.68 0 0 Z " fill="#FDDE1D" transform="translate(568,464)"/>
<path d="M0 0 C3 1 3 1 3 1 Z " fill="#F5D421" transform="translate(696,288)"/>
<path d="M0 0 C2 1 2 1 2 1 Z " fill="#DFB62D" transform="translate(361,755)"/>
<path d="M0 0 C2 1 2 1 2 1 Z " fill="#F7D01C" transform="translate(459,669)"/>
<path d="" fill="#FCD819" transform="translate(0,0)"/>
<path d="M0 0 C2 1 2 1 2 1 Z " fill="#F8D41F" transform="translate(588,527)"/>
<path d="M0 0 C2 1 2 1 2 1 Z " fill="#F4D521" transform="translate(638,511)"/>
<path d="M0 0 C2 1 2 1 2 1 Z " fill="#EFCF23" transform="translate(710,463)"/>
<path d="" fill="#FDDE1F" transform="translate(0,0)"/>
<path d="" fill="#F2D01B" transform="translate(0,0)"/>
<path d="M0 0 C2 1 2 1 2 1 Z " fill="#F9D820" transform="translate(326,305)"/>
<path d="M0 0 C2 1 2 1 2 1 Z " fill="#F2D31B" transform="translate(294,296)"/>
<path d="" fill="#605B52" transform="translate(0,0)"/>
<path d="" fill="#57554E" transform="translate(0,0)"/>
<path d="" fill="#585755" transform="translate(0,0)"/>
<path d="" fill="#6B5C40" transform="translate(0,0)"/>
<path d="" fill="#DEB325" transform="translate(0,0)"/>
<path d="" fill="#D8B12F" transform="translate(0,0)"/>
<path d="" fill="#E4BD2E" transform="translate(0,0)"/>
<path d="" fill="#5C5B5C" transform="translate(0,0)"/>
<path d="" fill="#EBC126" transform="translate(0,0)"/>
<path d="" fill="#EFC328" transform="translate(0,0)"/>
<path d="" fill="#F0C61F" transform="translate(0,0)"/>
<path d="" fill="#F0C824" transform="translate(0,0)"/>
<path d="" fill="#F0C521" transform="translate(0,0)"/>
<path d="" fill="#57544F" transform="translate(0,0)"/>
<path d="" fill="#F3CA21" transform="translate(0,0)"/>
<path d="" fill="#F0CA2A" transform="translate(0,0)"/>
<path d="" fill="#F7CD23" transform="translate(0,0)"/>
<path d="" fill="#F6CE20" transform="translate(0,0)"/>
<path d="" fill="#F5CD20" transform="translate(0,0)"/>
<path d="" fill="#F5CC21" transform="translate(0,0)"/>
<path d="" fill="#F9D225" transform="translate(0,0)"/>
<path d="" fill="#FAD422" transform="translate(0,0)"/>
<path d="" fill="#FDD61E" transform="translate(0,0)"/>
<path d="" fill="#5A5655" transform="translate(0,0)"/>
<path d="" fill="#F6CC14" transform="translate(0,0)"/>
<path d="" fill="#5B5956" transform="translate(0,0)"/>
<path d="" fill="#7F6D3A" transform="translate(0,0)"/>
<path d="" fill="#FDD816" transform="translate(0,0)"/>
<path d="" fill="#FEDB20" transform="translate(0,0)"/>
<path d="" fill="#FDDA22" transform="translate(0,0)"/>
<path d="" fill="#FDD91E" transform="translate(0,0)"/>
<path d="" fill="#FADA1D" transform="translate(0,0)"/>
<path d="" fill="#FBDC1E" transform="translate(0,0)"/>
<path d="" fill="#F9D720" transform="translate(0,0)"/>
<path d="" fill="#646363" transform="translate(0,0)"/>
<path d="" fill="#FCDD1C" transform="translate(0,0)"/>
<path d="" fill="#F7D51B" transform="translate(0,0)"/>
<path d="" fill="#FBDA20" transform="translate(0,0)"/>
<path d="" fill="#FEDA20" transform="translate(0,0)"/>
<path d="" fill="#FDDB20" transform="translate(0,0)"/>
<path d="" fill="#F3D41A" transform="translate(0,0)"/>
<path d="" fill="#FDDF1B" transform="translate(0,0)"/>
<path d="" fill="#F2D121" transform="translate(0,0)"/>
<path d="" fill="#FEDF17" transform="translate(0,0)"/>
<path d="" fill="#F8D720" transform="translate(0,0)"/>
<path d="" fill="#F6D41D" transform="translate(0,0)"/>
<path d="" fill="#F6D31C" transform="translate(0,0)"/>
<path d="" fill="#F9D720" transform="translate(0,0)"/>
<path d="" fill="#FFDF19" transform="translate(0,0)"/>
<path d="" fill="#FADE1F" transform="translate(0,0)"/>
<path d="" fill="#F4D422" transform="translate(0,0)"/>
<path d="" fill="#FEDD12" transform="translate(0,0)"/>
<path d="" fill="#F5D20A" transform="translate(0,0)"/>
<path d="" fill="#F6D41F" transform="translate(0,0)"/>
<path d="" fill="#F5D31C" transform="translate(0,0)"/>
<path d="" fill="#FEDD1D" transform="translate(0,0)"/>
<path d="" fill="#FDDD1B" transform="translate(0,0)"/>
<path d="" fill="#FCDE1B" transform="translate(0,0)"/>
<path d="" fill="#FCDD19" transform="translate(0,0)"/>
<path d="" fill="#F4D51D" transform="translate(0,0)"/>
<path d="" fill="#F3D110" transform="translate(0,0)"/>
<path d="" fill="#FBDA20" transform="translate(0,0)"/>
<path d="" fill="#FBDD22" transform="translate(0,0)"/>
<path d="" fill="#F9D81A" transform="translate(0,0)"/>
<path d="" fill="#F5D51F" transform="translate(0,0)"/>
<path d="" fill="#FEE01E" transform="translate(0,0)"/>
<path d="" fill="#FDDF20" transform="translate(0,0)"/>
<path d="" fill="#FCDD1C" transform="translate(0,0)"/>
<path d="" fill="#FBDB22" transform="translate(0,0)"/>
<path d="" fill="#FFDE1C" transform="translate(0,0)"/>
<path d="" fill="#FCDE16" transform="translate(0,0)"/>
<path d="" fill="#FDDE1F" transform="translate(0,0)"/>
<path d="" fill="#F2D21C" transform="translate(0,0)"/>
<path d="" fill="#FADA1A" transform="translate(0,0)"/>
<path d="" fill="#FDDF1E" transform="translate(0,0)"/>
<path d="" fill="#EFCE23" transform="translate(0,0)"/>
<path d="" fill="#FADE15" transform="translate(0,0)"/>
<path d="" fill="#F6D52B" transform="translate(0,0)"/>
<path d="" fill="#F4D31F" transform="translate(0,0)"/>
<path d="" fill="#FEDD1A" transform="translate(0,0)"/>
<path d="" fill="#F6D41B" transform="translate(0,0)"/>
<path d="" fill="#F6D61A" transform="translate(0,0)"/>
<path d="" fill="#FEDB24" transform="translate(0,0)"/>
<path d="" fill="#F7D71D" transform="translate(0,0)"/>
<path d="" fill="#F7D622" transform="translate(0,0)"/>
<path d="" fill="#FDDF19" transform="translate(0,0)"/>
<path d="" fill="#FFE01D" transform="translate(0,0)"/>
<path d="" fill="#F0D121" transform="translate(0,0)"/>
<path d="" fill="#F7D921" transform="translate(0,0)"/>
<path d="" fill="#FEDF15" transform="translate(0,0)"/>
<path d="" fill="#FBDD20" transform="translate(0,0)"/>
<path d="" fill="#FEDE1F" transform="translate(0,0)"/>
<path d="" fill="#FEE121" transform="translate(0,0)"/>
<path d="" fill="#F3D211" transform="translate(0,0)"/>
<path d="" fill="#FFE01A" transform="translate(0,0)"/>
<path d="" fill="#FEE01B" transform="translate(0,0)"/>
<path d="" fill="#FEDE1F" transform="translate(0,0)"/>
<path d="" fill="#FFDD24" transform="translate(0,0)"/>
<path d="" fill="#FEDE1F" transform="translate(0,0)"/>
<path d="" fill="#FFDF19" transform="translate(0,0)"/>
<path d="" fill="#F2D520" transform="translate(0,0)"/>
<path d="" fill="#FCDF23" transform="translate(0,0)"/>
<path d="" fill="#FBDE20" transform="translate(0,0)"/>
<path d="" fill="#F3D620" transform="translate(0,0)"/>
<path d="" fill="#FDE11D" transform="translate(0,0)"/>
<path d="" fill="#FADA22" transform="translate(0,0)"/>
<path d="" fill="#FFDD14" transform="translate(0,0)"/>
<path d="" fill="#F8D81C" transform="translate(0,0)"/>
<path d="" fill="#FBDF1E" transform="translate(0,0)"/>
<path d="" fill="#FEDE1D" transform="translate(0,0)"/>
<path d="" fill="#FDDE1D" transform="translate(0,0)"/>
<path d="" fill="#FDDE1D" transform="translate(0,0)"/>
<path d="" fill="#FEDD1E" transform="translate(0,0)"/>
<path d="" fill="#F6D61D" transform="translate(0,0)"/>
<path d="" fill="#F6D31F" transform="translate(0,0)"/>
<path d="" fill="#FFE21A" transform="translate(0,0)"/>
<path d="" fill="#FFE11D" transform="translate(0,0)"/>
<path d="" fill="#FCDC15" transform="translate(0,0)"/>
<path d="" fill="#FCE01B" transform="translate(0,0)"/>
<path d="" fill="#FDDD1A" transform="translate(0,0)"/>
<path d="" fill="#FFDE18" transform="translate(0,0)"/>
<path d="" fill="#FDDE1F" transform="translate(0,0)"/>
<path d="" fill="#FFE01E" transform="translate(0,0)"/>
<path d="" fill="#FDDF1B" transform="translate(0,0)"/>
<path d="" fill="#FCDF13" transform="translate(0,0)"/>
<path d="" fill="#F3D518" transform="translate(0,0)"/>
<path d="" fill="#F2D11E" transform="translate(0,0)"/>
<path d="" fill="#FEDE1C" transform="translate(0,0)"/>
<path d="" fill="#FFDD18" transform="translate(0,0)"/>
<path d="" fill="#FFE022" transform="translate(0,0)"/>
<path d="" fill="#F5D820" transform="translate(0,0)"/>
<path d="" fill="#F1D421" transform="translate(0,0)"/>
<path d="" fill="#F5D518" transform="translate(0,0)"/>
<path d="" fill="#F9D81A" transform="translate(0,0)"/>
<path d="" fill="#F3D220" transform="translate(0,0)"/>
<path d="" fill="#F9DB1D" transform="translate(0,0)"/>
<path d="" fill="#F9DD1F" transform="translate(0,0)"/>
<path d="" fill="#F1CF19" transform="translate(0,0)"/>
<path d="" fill="#FADA1E" transform="translate(0,0)"/>
<path d="" fill="#F4D321" transform="translate(0,0)"/>
<path d="" fill="#F9D91F" transform="translate(0,0)"/>
<path d="" fill="#FADA1F" transform="translate(0,0)"/>
<path d="" fill="#F2D11A" transform="translate(0,0)"/>
<path d="" fill="#F8D818" transform="translate(0,0)"/>
<path d="" fill="#F3D223" transform="translate(0,0)"/>
<path d="" fill="#F8D924" transform="translate(0,0)"/>
<path d="" fill="#F3D622" transform="translate(0,0)"/>
<path d="" fill="#F1D422" transform="translate(0,0)"/>
<path d="" fill="#F3D71B" transform="translate(0,0)"/>
<path d="" fill="#F3D31F" transform="translate(0,0)"/>
<path d="" fill="#F2D427" transform="translate(0,0)"/>
<path d="" fill="#F5D51F" transform="translate(0,0)"/>
<path d="" fill="#F6D81A" transform="translate(0,0)"/>
<path d="" fill="#F8D91F" transform="translate(0,0)"/>
<path d="" fill="#F7DA24" transform="translate(0,0)"/>
<path d="" fill="#F6D71E" transform="translate(0,0)"/>
<path d="" fill="#F6D723" transform="translate(0,0)"/>
<path d="" fill="#F5D61F" transform="translate(0,0)"/>
<path d="" fill="#F4D424" transform="translate(0,0)"/>
<path d="" fill="#E7CB2B" transform="translate(0,0)"/>
<path d="" fill="#F6D316" transform="translate(0,0)"/>
<path d="" fill="#F3D61F" transform="translate(0,0)"/>
<path d="" fill="#F5D721" transform="translate(0,0)"/>
<path d="" fill="#F6D920" transform="translate(0,0)"/>
<path d="" fill="#F7DB20" transform="translate(0,0)"/>
<path d="" fill="#EFD124" transform="translate(0,0)"/>
<path d="" fill="#F5D61E" transform="translate(0,0)"/>
<path d="" fill="#F4D51F" transform="translate(0,0)"/>
<path d="" fill="#F5D323" transform="translate(0,0)"/>
<path d="" fill="#E4C524" transform="translate(0,0)"/>
<path d="" fill="#615E53" transform="translate(0,0)"/>
<path d="" fill="#837333" transform="translate(0,0)"/>
<path d="" fill="#686249" transform="translate(0,0)"/>
<path d="" fill="#6E6339" transform="translate(0,0)"/>
<path d="" fill="#595959" transform="translate(0,0)"/>
<path d="" fill="#5C584E" transform="translate(0,0)"/>
<path d="" fill="#524E47" transform="translate(0,0)"/>
<path d="" fill="#545150" transform="translate(0,0)"/>
<path d="" fill="#595655" transform="translate(0,0)"/>
<path d="" fill="#5D5C5B" transform="translate(0,0)"/>
<path d="" fill="#5B585A" transform="translate(0,0)"/>
<path d="" fill="#504F4B" transform="translate(0,0)"/>
<path d="" fill="#4F4E4C" transform="translate(0,0)"/>
<path d="" fill="#595654" transform="translate(0,0)"/>
<path d="" fill="#565454" transform="translate(0,0)"/>
</svg>
