<?xml version="1.0" encoding="UTF-8"?>
<svg version="1.1" xmlns="http://www.w3.org/2000/svg" width="1024" height="1024">
<path d="M0 0 C1.19026385 -0.00424107 1.19026385 -0.00424107 2.40457344 -0.00856781 C6.59939012 -0.02346769 10.7941732 -0.03275668 14.98901367 -0.03710938 C19.29018974 -0.04259829 23.59104999 -0.06666168 27.89212704 -0.09508133 C31.23040135 -0.1138132 34.56860089 -0.11891876 37.90692329 -0.12044525 C39.49155985 -0.12344562 41.07619593 -0.13138411 42.66077995 -0.14463043 C55.573248 -0.24492412 67.81743426 0.68956854 78.22265625 9.203125 C85.65051174 17.33024535 89.74022939 26.26024178 93.47265625 36.515625 C94.0523913 38.06161282 94.63417643 39.60683308 95.21777344 41.15136719 C96.51350722 44.58738239 97.79872379 48.02710995 99.078125 51.46923828 C101.3991765 57.69657181 103.7773034 63.90156891 106.16015625 70.10546875 C115.89458997 95.46448255 125.50442009 120.86881812 135.02017212 146.31062317 C135.37960907 147.27159409 135.73904602 148.232565 136.109375 149.22265625 C136.46309174 150.16835983 136.81680847 151.11406342 137.1812439 152.08842468 C140.14999214 160.02042044 143.14786423 167.94115789 146.15393066 175.85906982 C150.6704504 187.75575923 155.14901078 199.66613019 159.59375 211.58984375 C159.95054148 212.54697738 159.95054148 212.54697738 160.31454086 213.52344704 C162.92750908 220.53393522 165.53768048 227.54545904 168.14550781 234.55786133 C173.12499562 247.94063395 178.14837953 261.30553173 183.22207642 274.65287781 C187.24129379 285.23322577 191.20272905 295.83442503 195.14404297 306.44400024 C197.1693819 311.89576502 199.19778369 317.34638953 201.2265625 322.796875 C201.64003937 323.90774979 202.05351624 325.01862457 202.47952271 326.16316223 C206.49228 336.93797385 210.53330003 347.70210965 214.57693481 358.46536255 C225.10787677 386.50196536 225.10787677 386.50196536 230.12719727 400.12387085 C230.82570974 402.01859482 231.52706684 403.91226933 232.22851562 405.8059082 C232.63134766 406.90378662 233.03417969 408.00166504 233.44921875 409.1328125 C233.79549316 410.07366699 234.14176758 411.01452148 234.49853516 411.98388672 C235.22265625 414.203125 235.22265625 414.203125 235.22265625 416.203125 C235.88265625 416.533125 236.54265625 416.863125 237.22265625 417.203125 C237.93414307 419.09291077 237.93414307 419.09291077 238.59863281 421.56274414 C240.22172037 427.2899481 242.17824297 432.8547396 244.20703125 438.44921875 C244.5857135 439.49980972 244.96439575 440.5504007 245.35455322 441.63282776 C246.55809303 444.96966675 247.76538362 448.305135 248.97265625 451.640625 C249.76715781 453.84301574 250.56143041 456.04548909 251.35546875 458.24804688 C254.90244706 468.07797269 258.46874573 477.90024376 262.08984375 487.703125 C274.13581859 520.32405698 274.13581859 520.32405698 270.84765625 528.453125 C267.51161741 534.1358946 262.10751443 537.26082046 255.97729492 539.26318359 C249.60065172 540.79888049 243.05740421 540.49063053 236.5390625 540.46875 C235.11474034 540.47010012 233.69041862 540.47204353 232.26609802 540.47454834 C229.29153016 540.47748425 226.31708304 540.47325229 223.3425293 540.46386719 C219.55231622 540.45248395 215.76238683 540.45903464 211.97218418 540.47101212 C209.0337261 540.47828127 206.0953339 540.47591956 203.1568737 540.47075653 C201.76039533 540.46943343 200.36391075 540.47102013 198.96743965 540.47571564 C187.37291942 540.50615029 178.08118912 539.66091626 168.22265625 533.203125 C167.59230469 532.79449219 166.96195313 532.38585937 166.3125 531.96484375 C157.5256656 525.41816933 154.22554923 513.1195034 150.69140625 503.18359375 C150.09289856 501.53113396 150.09289856 501.53113396 149.4822998 499.84529114 C148.22220134 496.36284084 146.97188562 492.8769873 145.72265625 489.390625 C144.06998659 484.79948435 142.41311195 480.20987607 140.75390625 475.62109375 C140.35945313 474.52852264 139.965 473.43595154 139.55859375 472.31027222 C136.94372254 465.09908527 134.20810389 457.95391461 131.29882812 450.85668945 C130.05010853 447.77766648 129.22265625 445.5493959 129.22265625 442.203125 C128.56265625 441.873125 127.90265625 441.543125 127.22265625 441.203125 C126.58203125 439.2265625 126.58203125 439.2265625 125.97265625 436.578125 C124.69688512 431.71105813 123.21855452 426.98093414 121.47265625 422.265625 C121.25706055 421.62737793 121.04146484 420.98913086 120.81933594 420.33154297 C119.18410344 416.06252314 117.19093718 414.14902805 113.20513165 412.01194859 C109.94060782 410.6800663 106.71185895 410.65168997 103.24607849 410.69519043 C102.47253952 410.68895047 101.69900054 410.6827105 100.90202099 410.67628145 C98.3255597 410.66040296 95.75005128 410.67293494 93.17358398 410.68554688 C91.3202357 410.6801235 89.46689174 410.67299963 87.61355591 410.66430664 C82.5908926 410.6460973 77.56855856 410.65313066 72.54588962 410.66582298 C67.28628586 410.67596148 62.02670999 410.66655508 56.7671051 410.66027832 C47.93623806 410.65300504 39.10550491 410.66258194 30.2746582 410.68164062 C20.06746143 410.70341545 9.86058417 410.69635222 -0.34660488 410.674335 C-9.11452327 410.65617998 -17.8823455 410.653623 -26.6502766 410.66408968 C-31.88520129 410.67032316 -37.1199758 410.67116405 -42.35489082 410.65794373 C-47.27570549 410.64638417 -52.1961083 410.654413 -57.11687851 410.67752075 C-58.92203398 410.68280697 -60.72722416 410.68129555 -62.5323658 410.67247009 C-64.99796069 410.66152749 -67.46223851 410.67526152 -69.92774963 410.69519043 C-70.64088697 410.68626754 -71.35402432 410.67734466 -72.08877188 410.66815138 C-77.08359445 410.74638206 -79.91274786 412.09878517 -83.77734375 415.203125 C-85.09599167 416.91249613 -85.09599167 416.91249613 -85.77734375 418.89453125 C-86.09058594 419.68617676 -86.40382813 420.47782227 -86.7265625 421.29345703 C-87.07332031 422.25364746 -87.42007813 423.21383789 -87.77734375 424.203125 C-88.21691406 425.40694824 -88.65648437 426.61077148 -89.109375 427.85107422 C-90.70191183 432.268294 -92.2398357 436.70401879 -93.77734375 441.140625 C-94.63573117 443.60618547 -95.49524338 446.07135176 -96.35490417 448.53646851 C-96.94340654 450.22416142 -97.53146689 451.91200853 -98.11909485 453.6000061 C-100.12948396 459.36885857 -102.16929216 465.12662183 -104.2265625 470.87890625 C-104.77677051 472.42127759 -105.32690209 473.96367619 -105.87695312 475.50610352 C-106.66178746 477.7066817 -107.44810223 479.90665542 -108.23999023 482.10470581 C-110.86660531 489.39879207 -113.33929115 496.56714981 -114.77734375 504.203125 C-115.43734375 504.203125 -116.09734375 504.203125 -116.77734375 504.203125 C-116.92429687 504.85796875 -117.07125 505.5128125 -117.22265625 506.1875 C-120.14061067 518.06055592 -124.43376082 528.11964824 -134.77734375 535.203125 C-141.77431514 539.16345699 -148.3567186 540.3158981 -156.37426758 540.36425781 C-157.6661348 540.37386536 -158.95800201 540.3834729 -160.28901672 540.39337158 C-161.68746766 540.39822046 -163.08592068 540.40249907 -164.484375 540.40625 C-165.19578833 540.40907738 -165.90720165 540.41190475 -166.64017296 540.41481781 C-170.40473165 540.42976125 -174.1692525 540.4390214 -177.93383789 540.44335938 C-181.80039317 540.44883824 -185.6665953 540.47286756 -189.53304005 540.50133133 C-192.52639242 540.52005344 -195.51966129 540.52516836 -198.51306725 540.52669525 C-199.93747577 540.52970053 -201.36188359 540.53765628 -202.7862339 540.55088043 C-213.22427857 540.6408793 -222.47657997 540.15260165 -230.77734375 533.203125 C-234.11461927 528.91387025 -235.6876808 524.67256505 -235.77734375 519.203125 C-234.47290159 511.13816048 -231.56344128 503.45749846 -228.75952148 495.81494141 C-227.29892682 492.10725136 -227.29892682 492.10725136 -226.77734375 488.203125 C-226.11734375 488.203125 -225.45734375 488.203125 -224.77734375 488.203125 C-224.69282959 487.4402417 -224.60831543 486.6773584 -224.52124023 485.89135742 C-223.49178205 480.78731251 -221.68343923 476.06592172 -219.875 471.19140625 C-219.48117126 470.11730499 -219.08734253 469.04320374 -218.68157959 467.93655396 C-217.40588932 464.46109202 -216.12284233 460.98839479 -214.83984375 457.515625 C-213.9684984 455.14414368 -213.09764892 452.7724801 -212.22729492 450.40063477 C-208.60804902 440.54663595 -204.9718036 430.69910436 -201.29296875 420.8671875 C-201.05086166 420.21894516 -200.80875458 419.57070282 -200.55931091 418.90281677 C-199.50302554 416.07546381 -198.44153193 413.25033855 -197.36938477 410.42895508 C-196.83849243 409.0158606 -196.83849243 409.0158606 -196.296875 407.57421875 C-195.99885986 406.78974365 -195.70084473 406.00526855 -195.39379883 405.19702148 C-194.62965567 403.07327065 -194.62965567 403.07327065 -194.77734375 400.203125 C-194.11734375 400.203125 -193.45734375 400.203125 -192.77734375 400.203125 C-192.61239914 399.62078598 -192.44745453 399.03844696 -192.2775116 398.4384613 C-190.27618792 391.55492792 -187.87030582 384.87587587 -185.328125 378.17578125 C-184.47192939 375.89781495 -183.61581184 373.61981932 -182.75976562 371.34179688 C-181.41820497 367.78380912 -180.07502837 364.22644099 -178.73022461 360.66967773 C-177.42537019 357.21492708 -176.12644544 353.75799165 -174.828125 350.30078125 C-174.42193436 349.23207291 -174.01574371 348.16336456 -173.59724426 347.06227112 C-173.22653305 346.07371628 -172.85582184 345.08516144 -172.47387695 344.06665039 C-171.98115044 342.76287193 -171.98115044 342.76287193 -171.47846985 341.43275452 C-170.62735542 339.11569653 -170.62735542 339.11569653 -170.77734375 336.203125 C-170.11734375 336.203125 -169.45734375 336.203125 -168.77734375 336.203125 C-168.62096436 335.64729736 -168.46458496 335.09146973 -168.3034668 334.51879883 C-166.07929532 326.84676109 -163.36147548 319.37870029 -160.58984375 311.890625 C-160.10227599 310.56541514 -159.61489185 309.24013771 -159.12768555 307.91479492 C-155.86106943 299.04641167 -152.52785308 290.20432866 -149.0637207 281.41088867 C-148.75909912 280.62689697 -148.45447754 279.84290527 -148.140625 279.03515625 C-147.87548096 278.36202393 -147.61033691 277.6888916 -147.3371582 276.99536133 C-146.62826919 275.03880408 -146.62826919 275.03880408 -146.77734375 272.203125 C-146.11734375 272.203125 -145.45734375 272.203125 -144.77734375 272.203125 C-144.65383545 271.49220703 -144.53032715 270.78128906 -144.40307617 270.04882812 C-143.75751419 267.11294424 -142.84405318 264.47687878 -141.765625 261.671875 C-141.34563232 260.57270752 -140.92563965 259.47354004 -140.49291992 258.34106445 C-140.02990479 257.14054443 -139.56688965 255.94002441 -139.08984375 254.703125 C-138.59239387 253.40406639 -138.09541795 252.10482621 -137.59887695 250.80541992 C-136.53631857 248.02520664 -135.47218318 245.24560403 -134.40722656 242.46630859 C-132.01859644 236.22577702 -129.65968747 229.97402253 -127.29870605 223.72299194 C-122.71712976 211.59482641 -118.12160238 199.47196437 -113.51953125 187.3515625 C-104.70372217 164.1316917 -95.89526953 140.90953103 -87.18994141 117.64794922 C-81.84558087 103.36900669 -76.47046071 89.10173886 -71.06591797 74.84545898 C-67.94185325 66.60159571 -64.82459011 58.35608578 -61.77348328 50.08488464 C-60.51489706 46.67457741 -59.24822635 43.26729885 -57.98098755 39.86019897 C-57.39641695 38.28121176 -56.81592994 36.70070544 -56.23995972 35.11856079 C-51.6760298 22.58541264 -46.73641781 10.57449445 -34.39453125 3.91796875 C-23.57986136 -0.81133046 -11.59041795 0.02808771 0 0 Z M10.22265625 147.203125 C8.73844965 150.10695892 8.73844965 150.10695892 7.5078125 153.48828125 C7.25854507 154.13507339 7.00927765 154.78186554 6.75245667 155.44825745 C5.8940572 157.69448255 5.0562246 159.94757018 4.22265625 162.203125 C3.75795929 163.45690948 3.75795929 163.45690948 3.28387451 164.73602295 C1.11626342 170.60236005 -1.02044198 176.47972205 -3.1506958 182.35971069 C-11.4331837 205.21147867 -19.90199442 227.98897025 -28.48266602 250.73022461 C-30.52079272 256.13389798 -32.54473241 261.54272283 -34.56115723 266.95452881 C-35.39471189 269.18106435 -36.23446692 271.40528565 -37.07946777 273.62750244 C-38.36466647 277.00847638 -39.63111469 280.39599243 -40.89453125 283.78515625 C-41.28577179 284.80075119 -41.67701233 285.81634613 -42.08010864 286.86271667 C-44.30748422 292.90466329 -45.47555141 297.75322371 -44.77734375 304.203125 C-42.84227749 306.63876714 -41.80774226 307.19299216 -38.77734375 308.203125 C-37.22790293 308.29848163 -35.67470733 308.33801281 -34.12234497 308.34356689 C-32.68817734 308.35213211 -32.68817734 308.35213211 -31.22503662 308.36087036 C-30.17769348 308.36198822 -29.13035034 308.36310608 -28.05126953 308.36425781 C-26.94695587 308.36922272 -25.84264221 308.37418762 -24.7048645 308.37930298 C-21.04412213 308.393933 -17.38342308 308.40072767 -13.72265625 308.40625 C-11.1830139 308.41200031 -8.64337157 308.41775806 -6.10372925 308.42352295 C-1.45694845 308.43269092 3.18981931 308.43899057 7.83660686 308.4420197 C14.67259503 308.44650065 21.50838326 308.46405197 28.34431064 308.4930203 C34.26831872 308.51725158 40.19227705 308.52496448 46.11633682 308.52669525 C48.63535781 308.52972575 51.15437787 308.53776759 53.67336655 308.55088043 C57.19499682 308.56790544 60.71613841 308.56606919 64.23779297 308.55957031 C65.28108765 308.5687851 66.32438232 308.57799988 67.39929199 308.5874939 C74.31656733 308.58692408 74.31656733 308.58692408 80.22265625 305.203125 C81.847046 302.80185319 82.35559375 301.19408181 81.9675293 298.30133057 C80.6531286 292.42587973 78.77952046 286.91835664 76.59765625 281.3125 C76.07631104 279.95103851 76.07631104 279.95103851 75.54443359 278.56207275 C74.44305654 275.69012205 73.33298159 272.82162638 72.22265625 269.953125 C71.47729442 268.01323981 70.73249756 266.07313744 69.98828125 264.1328125 C66.63212246 255.36528418 66.63212246 255.36528418 63.19189453 246.63061523 C61.78375688 243.10388659 60.43967746 239.55329032 59.08984375 236.00390625 C58.7808313 235.19231552 58.47181885 234.38072479 58.15344238 233.54454041 C57.48450845 231.78753078 56.81575275 230.0304533 56.14715576 228.27331543 C55.08526362 225.48306183 54.02247471 222.69315124 52.95947266 219.90332031 C49.6004363 211.08602539 46.24506593 202.2673803 42.90328979 193.44352722 C41.47841299 189.68193648 40.05134181 185.92117998 38.62408447 182.16049194 C37.94862679 180.37886536 37.27424027 178.59683223 36.60101318 176.81436157 C34.50500541 171.2653668 32.38700217 165.72585314 30.22265625 160.203125 C29.94683716 159.49776611 29.67101807 158.79240723 29.38684082 158.06567383 C28.60998071 156.09986078 27.81504617 154.14262329 27.01171875 152.1875 C26.3458374 150.55119629 26.3458374 150.55119629 25.66650391 148.88183594 C24.14181711 146.05314749 22.99051259 144.78878512 20.22265625 143.203125 C15.16533629 142.46559917 13.44089039 143.36256944 10.22265625 147.203125 Z " fill="#FED415" transform="translate(410.77734375,231.796875)"/>
<path d="M0 0 C0.71808334 -0.0049649 1.43616669 -0.00992981 2.17601013 -0.01504517 C4.52962229 -0.02953919 6.88316713 -0.03644635 9.23681641 -0.04199219 C10.04660572 -0.04481956 10.85639503 -0.04764694 11.69072342 -0.05056 C15.97399466 -0.06549877 20.25723266 -0.07476246 24.54052734 -0.07910156 C28.94399508 -0.08458647 33.34715368 -0.1086301 37.75052452 -0.13707352 C41.15649282 -0.15577303 44.56238759 -0.16090932 47.96840286 -0.16243744 C49.59097615 -0.16544667 51.21354868 -0.17341613 52.83607101 -0.18662262 C72.23330668 -0.33327468 72.23330668 -0.33327468 79.33837891 5.53613281 C83.69427921 10.91695083 84.90359805 14.64629015 84.85093307 21.56156826 C84.85638258 22.40901835 84.86183208 23.25646843 84.86744672 24.12959883 C84.88211928 26.98257247 84.87538721 29.83509692 84.86883545 32.68809509 C84.87498814 34.74896185 84.88245122 36.80982505 84.89111543 38.87068278 C84.91114208 44.54457753 84.91245392 50.21834789 84.91077781 55.89227211 C84.91220852 62.00773535 84.93084502 68.12314874 84.94737244 74.23858643 C84.97361452 84.8407367 84.98888505 95.44285096 84.99633026 106.04502678 C85.00416226 117.17455632 85.01773854 128.30405305 85.03913116 139.43356514 C85.04111904 140.47184158 85.04111904 140.47184158 85.04314708 141.5310933 C85.04854499 144.34094007 85.05398478 147.15078676 85.05947979 149.96063334 C85.10956732 175.58027117 85.1451853 201.19990803 85.171875 226.81958008 C85.19705858 250.98952372 85.23137704 275.15943063 85.27636719 299.3293457 C85.27774973 300.0732472 85.27913227 300.81714869 85.2805567 301.58359266 C85.28613138 304.58279415 85.29171272 307.58199563 85.29729391 310.58119711 C85.30007498 312.07593807 85.30285505 313.57067904 85.30563411 315.06542002 C85.30840661 316.5565613 85.31118164 318.04770258 85.3139592 319.53884385 C85.35817234 343.3160003 85.39425268 367.09316953 85.4290105 390.87034143 C85.43922044 397.82682889 85.44990588 404.78331514 85.46163845 411.73980021 C85.48627811 426.3734458 85.50844474 441.00708306 85.52158967 455.64074492 C85.52707891 461.69199243 85.53412541 467.7432266 85.54558372 473.79446602 C85.55601641 479.33948519 85.56166835 484.88448839 85.56357184 490.42951686 C85.56506506 492.43027829 85.56824953 494.43103937 85.5733436 496.43179487 C85.65217469 528.65661862 85.65217469 528.65661862 81.13208008 534.62719727 C73.47156551 541.66904262 62.29991477 540.79044823 52.58837891 540.84863281 C50.34273113 540.87781273 48.09727881 540.91239339 45.85177612 540.9511261 C43.83067912 540.98359276 41.80936846 541.00184712 39.78808594 541.01928711 C37.12920622 541.13272588 34.98053856 541.36513174 32.46337891 542.16113281 C32.46337891 541.50113281 32.46337891 540.84113281 32.46337891 540.16113281 C29.16337891 540.16113281 25.86337891 540.16113281 22.46337891 540.16113281 C22.13337891 541.15113281 21.80337891 542.14113281 21.46337891 543.16113281 C21.46337891 542.17113281 21.46337891 541.18113281 21.46337891 540.16113281 C20.53589844 540.17684326 19.60841797 540.19255371 18.65283203 540.20874023 C15.17881568 540.26017338 11.70520984 540.29762963 8.23095703 540.32592773 C6.73349584 540.34092169 5.23607785 540.36132386 3.73876953 540.38745117 C-5.60746988 540.54633724 -13.21312413 540.59183085 -21.34912109 535.34863281 C-26.84710475 529.85064915 -27.64268135 523.55900189 -27.67341089 516.08986983 C-27.67164142 515.29509723 -27.66987195 514.50032463 -27.66804886 513.68146801 C-27.67010149 512.82546685 -27.67215413 511.96946569 -27.67426896 511.0875251 C-27.67994462 508.20564914 -27.67848101 505.32382088 -27.67706299 502.44194031 C-27.67964629 500.36030183 -27.68265935 498.27866384 -27.68606639 496.19702655 C-27.69414358 490.46597096 -27.69592636 484.73492788 -27.69666386 479.00386727 C-27.69851313 472.82719023 -27.70605977 466.65051971 -27.71279907 460.47384644 C-27.72709605 446.2591493 -27.73290928 432.04445628 -27.73749102 417.82975368 C-27.73982702 410.80597117 -27.74342964 403.78218948 -27.74718639 396.75840761 C-27.76002083 372.71677337 -27.77074073 348.67513959 -27.774189 324.63350201 C-27.77441063 323.12445596 -27.77463241 321.61540992 -27.77485435 320.10636388 C-27.77507499 318.59367241 -27.77529547 317.08098093 -27.77551579 315.56828946 C-27.77595835 312.53356341 -27.77640546 309.49883737 -27.77685547 306.46411133 C-27.77696486 305.71167627 -27.77707425 304.95924122 -27.77718696 304.1840051 C-27.78081853 279.77991113 -27.7967429 255.37584685 -27.82004583 230.97176425 C-27.84463656 205.17188502 -27.85836145 179.37202275 -27.85955691 153.57213145 C-27.85972837 150.74054483 -27.8599438 147.90895821 -27.86019135 145.0773716 C-27.86024711 144.38015249 -27.86030288 143.68293338 -27.86036034 142.96458643 C-27.86151136 131.7405522 -27.87253753 120.51654843 -27.8870784 109.29252449 C-27.90143786 98.01361796 -27.90443076 86.73474997 -27.89663842 75.45583328 C-27.89272424 69.34453995 -27.89369908 63.2333492 -27.90769577 57.12206841 C-27.92038827 51.52919428 -27.91927813 45.9365003 -27.90710506 40.3436266 C-27.90514 38.31874634 -27.90826361 36.29385353 -27.91694942 34.26899096 C-27.92800209 31.51854826 -27.92058156 28.76874579 -27.90855789 26.01832104 C-27.91615309 25.23057194 -27.92374828 24.44282283 -27.93157363 23.63120255 C-27.86147301 16.21281962 -25.92259757 9.54710929 -20.53662109 4.16113281 C-14.10326834 0.15815777 -7.41216158 0.03924259 0 0 Z " fill="#FED516" transform="translate(726.53662109375,231.8388671875)"/>
<path d="M0 0 C0.66 0 1.32 0 2 0 C2.30292969 0.85722656 2.60585938 1.71445312 2.91796875 2.59765625 C5.29069736 9.07338018 7.46838724 14.75286944 12 20 C12.99 20.33 13.98 20.66 15 21 C15 21.66 15 22.32 15 23 C15.639375 23.12375 16.27875 23.2475 16.9375 23.375 C17.9584375 23.684375 17.9584375 23.684375 19 24 C19.33 24.66 19.66 25.32 20 26 C28.06507413 29.67053478 36.62154558 29.22471064 45.25390625 29.0078125 C49 29 49 29 51 30 C53.20660277 30.09798085 55.4162239 30.1307781 57.625 30.1328125 C58.28653076 30.13376923 58.94806152 30.13472595 59.62963867 30.13571167 C61.03515721 30.13639304 62.44067889 30.13454175 63.84619141 30.13037109 C65.96394251 30.12508992 68.08147486 30.13028184 70.19921875 30.13671875 C76.85123096 30.13931938 83.39534312 29.96740614 90.01074219 29.19140625 C93.7784796 28.82887481 97.27344758 29.45904884 101 30 C97.61279857 33.11142086 95.25812889 33.37486673 90.72192383 33.37231445 C89.4499263 33.37854324 88.17792877 33.38477203 86.86738586 33.39118958 C85.48059704 33.38249653 84.09381201 33.373178 82.70703125 33.36328125 C81.2769928 33.36276212 79.84695364 33.36328187 78.41691589 33.36479187 C75.41837923 33.3647022 72.42011166 33.35428899 69.42163086 33.33618164 C65.59989669 33.31359719 61.77855901 33.31293228 57.95677662 33.31969929 C55.00113985 33.32306209 52.04559146 33.31636431 49.08997154 33.30657005 C47.6823339 33.30274972 46.27468636 33.30155653 44.86704445 33.3031559 C33.23564547 33.30536386 23.89037918 32.47865205 14 26 C13.36964844 25.59136719 12.73929688 25.18273437 12.08984375 24.76171875 C5.89874952 20.14901338 2.13756066 12.89450444 0.40625 5.4453125 C0.125 3.25 0.125 3.25 0 0 Z " fill="#FDBF25" transform="translate(565,739)"/>
<path d="M0 0 C1.27860397 -0.00315216 2.55720795 -0.00630432 3.8745575 -0.009552 C5.27810704 -0.00776121 6.68165627 -0.00571001 8.08520508 -0.00341797 C9.52289344 -0.00409165 10.96058168 -0.00506221 12.39826965 -0.00631714 C15.41705404 -0.00779344 18.43580889 -0.00564329 21.45458984 -0.00097656 C25.31011682 0.00469512 29.16557378 0.00145764 33.02109814 -0.00454903 C35.99378477 -0.00817835 38.96645508 -0.00700475 41.93914223 -0.00442123 C43.35960206 -0.00375718 44.78006341 -0.00456204 46.20052147 -0.00690079 C48.19618066 -0.0094634 50.19184508 -0.00486001 52.1875 0 C53.32064133 0.00079559 54.45378265 0.00159119 55.6212616 0.00241089 C59.11023242 0.13683007 62.47139144 0.57894313 65.91723633 1.12939453 C64.92723633 1.45939453 63.93723633 1.78939453 62.91723633 2.12939453 C62.91723633 2.78939453 62.91723633 3.44939453 62.91723633 4.12939453 C61.44915527 4.16697876 61.44915527 4.16697876 59.95141602 4.20532227 C56.31342928 4.29963437 52.6756229 4.39979656 49.0378418 4.50170898 C47.46464259 4.54496791 45.89139916 4.58664927 44.31811523 4.62670898 C42.05414518 4.68463115 39.79039582 4.74826167 37.52661133 4.81298828 C36.82542175 4.82970078 36.12423218 4.84641327 35.40179443 4.8636322 C32.11489812 4.96290475 29.06581628 5.13752125 25.91723633 6.12939453 C25.91723633 5.46939453 25.91723633 4.80939453 25.91723633 4.12939453 C22.61723633 4.12939453 19.31723633 4.12939453 15.91723633 4.12939453 C15.58723633 5.11939453 15.25723633 6.10939453 14.91723633 7.12939453 C14.91723633 6.13939453 14.91723633 5.14939453 14.91723633 4.12939453 C13.4867395 4.15296021 13.4867395 4.15296021 12.02734375 4.17700195 C8.4883672 4.23131132 4.94942747 4.26574787 1.41015625 4.29418945 C-0.12148229 4.30927389 -1.65307765 4.32974432 -3.18457031 4.35571289 C-5.38642021 4.392113 -7.587699 4.40912366 -9.78979492 4.42236328 C-10.474272 4.43784714 -11.15874908 4.45333099 -11.8639679 4.46928406 C-16.64275726 4.47097484 -16.64275726 4.47097484 -19.03857422 2.61108398 C-19.38315674 2.12212646 -19.72773926 1.63316895 -20.08276367 1.12939453 C-18.81819336 1.14679687 -18.81819336 1.14679687 -17.52807617 1.16455078 C-16.43237305 1.17357422 -15.33666992 1.18259766 -14.20776367 1.19189453 C-12.57194336 1.20929687 -12.57194336 1.20929687 -10.90307617 1.22705078 C-7.09990928 1.09536218 -3.98385954 0.00280697 0 0 Z " fill="#FEB917" transform="translate(733.082763671875,767.87060546875)"/>
<path d="M0 0 C0.33 0 0.66 0 1 0 C1.27908468 5.42121998 0.42721053 9.37857235 -1.5 14.4375 C-1.85771484 15.39172852 -1.85771484 15.39172852 -2.22265625 16.36523438 C-2.80490924 17.91402732 -3.40101069 19.45760253 -4 21 C-4.66 21 -5.32 21 -6 21 C-6.103125 22.299375 -6.20625 23.59875 -6.3125 24.9375 C-6.77826579 29.26638203 -7.87688577 33.07748437 -9.37890625 37.15234375 C-10.10621051 38.99108389 -10.10621051 38.99108389 -10 41 C-10.66 41 -11.32 41 -12 41 C-12.13277344 41.60328125 -12.26554688 42.2065625 -12.40234375 42.828125 C-12.57894531 43.62734375 -12.75554687 44.4265625 -12.9375 45.25 C-13.11152344 46.03890625 -13.28554687 46.8278125 -13.46484375 47.640625 C-13.80183123 49.12632163 -14.16313607 50.60691181 -14.55859375 52.078125 C-15.49629543 56.16086153 -15.65479792 61.08865946 -14 65 C-13.01 65.33 -12.02 65.66 -11 66 C-11 66.66 -11 67.32 -11 68 C-9.68 68.66 -8.36 69.32 -7 70 C-7 70.66 -7 71.32 -7 72 C-5.6078125 72.185625 -5.6078125 72.185625 -4.1875 72.375 C-1 73 -1 73 2 75 C-3.86313526 75.52349422 -7.37243552 74.94444576 -12.23828125 71.55078125 C-15.97549892 68.26103531 -17.53408579 64.5841083 -18.9375 59.8125 C-19.09204194 50.38544148 -15.18951755 41.35396285 -11.98217773 32.61181641 C-10.52158307 28.90412636 -10.52158307 28.90412636 -10 25 C-9.34 25 -8.68 25 -8 25 C-7.90847656 24.21367188 -7.81695312 23.42734375 -7.72265625 22.6171875 C-6.78238996 17.91077353 -5.14013202 13.60241648 -3.4375 9.125 C-3.10814453 8.24585938 -2.77878906 7.36671875 -2.43945312 6.4609375 C-1.63113386 4.30541947 -0.81787706 2.15190559 0 0 Z " fill="#FDBE1B" transform="translate(194,695)"/>
<path d="M0 0 C0.33 0 0.66 0 1 0 C1 6.11579958 -1.18010631 9.40261458 -5.44525146 13.7227478 C-14.78178392 22.04514774 -24.61664999 22.84123586 -36.484375 22.5859375 C-38.03662458 22.57471796 -39.58889571 22.56619085 -41.14117432 22.56021118 C-45.18584007 22.53752869 -49.22917 22.47879123 -53.27331543 22.4119873 C-57.41640156 22.35011362 -61.55970797 22.32310098 -65.703125 22.29296875 C-73.8026898 22.22902108 -81.90117778 22.1269008 -90 22 C-90 21.34 -90 20.68 -90 20 C-71.19 20.495 -71.19 20.495 -52 21 C-52 20.34 -52 19.68 -52 19 C-50.69546875 19.01160156 -49.3909375 19.02320313 -48.046875 19.03515625 C-31.55029803 19.95504557 -31.55029803 19.95504557 -16 16 C-15.01 16 -14.02 16 -13 16 C-13 15.34 -13 14.68 -13 14 C-11.7315625 13.5978125 -11.7315625 13.5978125 -10.4375 13.1875 C-5.88075643 10.99592333 -3.88794217 6.5046433 -1.41796875 2.30078125 C-0.71607422 1.16189453 -0.71607422 1.16189453 0 0 Z " fill="#FEAE0C" transform="translate(287,749)"/>
<path d="M0 0 C1.62853967 0.00119551 3.25708003 0.00164418 4.88562012 0.00138855 C8.27079691 0.00293984 11.65586591 0.0111298 15.04101562 0.0246582 C19.37285455 0.04175541 23.70457688 0.04546863 28.03644562 0.04471302 C31.38734035 0.04498503 34.73820977 0.0504694 38.08909607 0.05771446 C39.68704538 0.06088632 41.28499754 0.06286506 42.88294983 0.06360817 C45.11016734 0.06578137 47.33726211 0.07454354 49.56445312 0.08520508 C50.82874146 0.08901688 52.09302979 0.09282867 53.39562988 0.09675598 C56.30195128 0.21369797 58.89724202 0.55573205 61.71875 1.23046875 C61.71875 1.56046875 61.71875 1.89046875 61.71875 2.23046875 C60.66274597 2.2385556 59.60674194 2.24664246 58.51873779 2.25497437 C48.57176231 2.33242532 38.62492379 2.42016201 28.67812729 2.51799583 C23.56425444 2.5679631 18.45040229 2.61429318 13.33642578 2.65234375 C8.40208677 2.68919101 3.46792077 2.73554958 -1.46627045 2.78853226 C-3.34970823 2.80707915 -5.23318311 2.82218602 -7.11667633 2.83381271 C-9.75276952 2.85067003 -12.38846622 2.87970386 -15.02441406 2.91162109 C-16.19506157 2.91486137 -16.19506157 2.91486137 -17.38935852 2.91816711 C-21.25231757 2.97800335 -23.9256848 3.32773545 -27.28125 5.23046875 C-30.53125 4.85546875 -30.53125 4.85546875 -33.28125 4.23046875 C-24.2829678 -1.76838605 -10.50958746 -0.05157149 0 0 Z " fill="#FDE831" transform="translate(411.28125,231.76953125)"/>
<path d="M0 0 C-0.5034001 6.99088028 -2.10118236 12.83423113 -4.5625 19.375 C-5.21377733 21.13128212 -5.8610997 22.88903738 -6.50390625 24.6484375 C-6.79080322 25.41333496 -7.0777002 26.17823242 -7.37329102 26.96630859 C-8.14724848 29.12314854 -8.14724848 29.12314854 -8 32 C-8.66 32 -9.32 32 -10 32 C-10.19335938 32.73605469 -10.38671875 33.47210937 -10.5859375 34.23046875 C-10.97652344 35.69419922 -10.97652344 35.69419922 -11.375 37.1875 C-11.63023437 38.15042969 -11.88546875 39.11335937 -12.1484375 40.10546875 C-12.94766296 42.82210207 -13.9031362 45.39137175 -15 48 C-15.66 47.67 -16.32 47.34 -17 47 C-17.66 47.66 -18.32 48.32 -19 49 C-18.34814208 44.71866156 -16.8495506 41.18238517 -15.0625 37.25 C-12.67657983 31.88627065 -10.99838957 26.79065951 -10 21 C-9.34 21 -8.68 21 -8 21 C-8.185625 20.38125 -8.37125 19.7625 -8.5625 19.125 C-9 17 -9 17 -8 15 C-7.34 15 -6.68 15 -6 15 C-5.87625 14.360625 -5.7525 13.72125 -5.625 13.0625 C-5.41875 12.051875 -5.2125 11.04125 -5 10 C-4.85433594 9.24074219 -4.70867187 8.48148438 -4.55859375 7.69921875 C-4.39488281 6.89097656 -4.23117187 6.08273437 -4.0625 5.25 C-3.83240234 4.08210937 -3.83240234 4.08210937 -3.59765625 2.890625 C-3.40042969 2.26671875 -3.20320313 1.6428125 -3 1 C-1 0 -1 0 0 0 Z " fill="#FDBE18" transform="translate(304,704)"/>
<path d="M0 0 C3.83838262 3.2493725 5.36589428 6.79688191 6.98046875 11.43359375 C7.23878983 12.14854507 7.4971109 12.8634964 7.76325989 13.60011292 C8.30537616 15.10692758 8.84211852 16.61568526 9.3737793 18.1262207 C10.18494107 20.43023165 11.01180476 22.7281042 11.84179688 25.02539062 C12.36811316 26.49446037 12.89353403 27.96385127 13.41796875 29.43359375 C13.6627446 30.11707382 13.90752045 30.80055389 14.15971375 31.50474548 C15.37900485 34.97810285 16.39307643 38.36677258 17 42 C16.01 42 15.02 42 14 42 C12.48660408 37.8929791 10.97504441 33.78528822 9.46508789 29.67700195 C8.95255539 28.28326759 8.43954579 26.88970857 7.92602539 25.49633789 C0 3.98725049 0 3.98725049 0 0 Z " fill="#FEC11B" transform="translate(655,677)"/>
<path d="M0 0 C1.01333399 3.15259465 0.81126663 4.84507423 0 8 C-0.30434938 13.61672316 -0.30434938 13.61672316 1 19 C1.99 19.33 2.98 19.66 4 20 C4 20.66 4 21.32 4 22 C5.32 22.66 6.64 23.32 8 24 C8 24.66 8 25.32 8 26 C8.928125 26.12375 9.85625 26.2475 10.8125 26.375 C14 27 14 27 17 29 C11.13686474 29.52349422 7.62756448 28.94444576 2.76171875 25.55078125 C-1.02833465 22.21452581 -2.60715307 18.51526672 -3.875 13.625 C-4.02652202 9.23086143 -3.52119613 5.14548186 -2 1 C-1.34 0.67 -0.68 0.34 0 0 Z " fill="#FCB819" transform="translate(179,741)"/>
<path d="M0 0 C2.58127891 1.29063946 2.63077098 2.19188392 3.5859375 4.8671875 C3.87533203 5.66568115 4.16472656 6.4641748 4.46289062 7.28686523 C4.76388672 8.14094971 5.06488281 8.99503418 5.375 9.875 C5.99725891 11.61333027 6.61965411 13.35161176 7.2421875 15.08984375 C7.5422168 15.93401855 7.84224609 16.77819336 8.15136719 17.64794922 C9.51190845 21.41879344 10.98617531 25.14672265 12.46875 28.87109375 C13.07315645 31.29316371 12.8081705 32.66587599 12 35 C12 34.34 12 33.68 12 33 C11.34 33 10.68 33 10 33 C8.56310152 29.2694141 7.13944791 25.53406303 5.72753906 21.79394531 C5.24607201 20.52403558 4.76109505 19.25545052 4.27246094 17.98828125 C3.56810529 16.15983149 2.87766046 14.32604244 2.1875 12.4921875 C1.76855469 11.39245605 1.34960938 10.29272461 0.91796875 9.15966797 C-0.01774858 5.938909 -0.17568974 3.33371278 0 0 Z " fill="#FDBB1A" transform="translate(552,703)"/>
<path d="M0 0 C1.05058594 0.10183594 2.10117187 0.20367188 3.18359375 0.30859375 C3.96863281 0.39238281 4.75367188 0.47617187 5.5625 0.5625 C3.5625 2.5625 3.5625 2.5625 0.89230347 2.80300903 C-0.24020844 2.79856781 -1.37272034 2.79412659 -2.53955078 2.78955078 C-3.82072784 2.78939972 -5.10190491 2.78924866 -6.42190552 2.78909302 C-7.82554274 2.77887895 -9.2291784 2.76844695 -10.6328125 2.7578125 C-12.06484785 2.75408291 -13.49688575 2.75123569 -14.92892456 2.74923706 C-18.70028717 2.74159627 -22.47149604 2.72194408 -26.24279785 2.6998291 C-30.09022949 2.67938019 -33.93768594 2.6702374 -37.78515625 2.66015625 C-45.33600764 2.6386985 -52.88673229 2.60455732 -60.4375 2.5625 C-60.4375 2.2325 -60.4375 1.9025 -60.4375 1.5625 C-59.8642247 1.55219254 -59.2909494 1.54188507 -58.70030212 1.53126526 C-52.71391363 1.42277741 -46.72766287 1.30821603 -40.74145508 1.19018555 C-38.50971367 1.14697176 -36.27794207 1.10528755 -34.04614258 1.06518555 C-30.83145061 1.00715344 -27.61690864 0.94355502 -24.40234375 0.87890625 C-23.41040512 0.86219376 -22.41846649 0.84548126 -21.39646912 0.82826233 C-14.21375436 0.67592957 -7.14034552 -0.72205741 0 0 Z " fill="#FEA003" transform="translate(660.4375,768.4375)"/>
<path d="M0 0 C3 1 3 1 3.96728516 2.88256836 C4.23847168 3.69346924 4.5096582 4.50437012 4.7890625 5.33984375 C5.09070313 6.23896484 5.39234375 7.13808594 5.703125 8.06445312 C6.00734375 9.01255859 6.3115625 9.96066406 6.625 10.9375 C6.93695312 11.85080078 7.24890625 12.76410156 7.5703125 13.70507812 C9.57283429 19.80327487 10.64343259 25.59309237 11 32 C9.515 32.495 9.515 32.495 8 33 C7.82984375 31.97261719 7.6596875 30.94523438 7.484375 29.88671875 C6.18982885 22.38270863 4.66214934 15.3974428 1.8515625 8.28515625 C0.83565281 5.55897657 0.31235178 2.889254 0 0 Z " fill="#FDBF1C" transform="translate(672,724)"/>
<path d="M0 0 C0.12375 0.639375 0.2475 1.27875 0.375 1.9375 C0.58125 2.618125 0.7875 3.29875 1 4 C1.66 4.33 2.32 4.66 3 5 C2.37755401 6.27208622 1.75193233 7.54261882 1.125 8.8125 C0.77695312 9.52019531 0.42890625 10.22789062 0.0703125 10.95703125 C-1 13 -1 13 -3 16 C-3.57118759 17.8392787 -4.08779525 19.69599075 -4.5625 21.5625 C-5.91008174 26.82016349 -5.91008174 26.82016349 -7 29 C-7.99 29 -8.98 29 -10 29 C-7.24809142 19.12550449 -3.59872163 9.58969974 0 0 Z " fill="#FDE628" transform="translate(359,255)"/>
<path d="M0 0 C0.66 0 1.32 0 2 0 C2.17781074 4.30635393 1.70574342 7.56840111 0.25 11.6171875 C-0.1109375 12.63554688 -0.471875 13.65390625 -0.84375 14.703125 C-1.2253125 15.74984375 -1.606875 16.7965625 -2 17.875 C-2.57234375 19.47988281 -2.57234375 19.47988281 -3.15625 21.1171875 C-4.09579936 23.74792571 -5.04392134 26.37523351 -6 29 C-8 26 -8 26 -7.71484375 23.828125 C-7.45832031 22.97734375 -7.20179688 22.1265625 -6.9375 21.25 C-6.65132813 20.28964844 -6.36515625 19.32929687 -6.0703125 18.33984375 C-4.10477938 12.2065196 -2.08104371 6.09507268 0 0 Z " fill="#FDC117" transform="translate(315,667)"/>
<path d="M0 0 C1.32 0 2.64 0 4 0 C4.33 0.66 4.66 1.32 5 2 C12.3682875 5.35341686 20.07033108 5.25660877 27.98022461 4.97705078 C29.98596308 4.91803947 31.99397047 4.95188876 34 5 C34.66 5.66 35.32 6.32 36 7 C10.46753247 9.09933622 10.46753247 9.09933622 2 4 C0.75 1.875 0.75 1.875 0 0 Z " fill="#FEAF0B" transform="translate(580,763)"/>
<path d="M0 0 C2.82202081 4.23303121 4.37875791 8.82441645 6.1875 13.5625 C6.56841797 14.53380859 6.94933594 15.50511719 7.34179688 16.50585938 C7.69693359 17.43333984 8.05207031 18.36082031 8.41796875 19.31640625 C8.74563232 20.16662354 9.0732959 21.01684082 9.41088867 21.89282227 C10 24 10 24 9 26 C3.79608603 22.53072402 2.68466914 15.81976612 1 10 C0.42368287 6.6581899 0.08589056 3.38877291 0 0 Z " fill="#FEE329" transform="translate(526,328)"/>
<path d="M0 0 C6.29631762 3.32305652 9.06363588 7.57937117 11.58203125 14.03515625 C12.07220802 16.3394452 11.72582262 17.78303159 11 20 C7.25895742 18.12947871 6.7141172 12.8843023 5.4140625 9.1015625 C3.93674068 5.86124889 2.83567568 4.96687292 0 3 C0 2.01 0 1.02 0 0 Z " fill="#FDBF16" transform="translate(525,641)"/>
<path d="M0 0 C0.66 0 1.32 0 2 0 C2.32764303 4.09553782 2.23069669 6.53860663 0.375 10.25 C-2.25240937 13.29226348 -4.22164227 14.66183164 -8 16 C-10.3125 15.8125 -10.3125 15.8125 -12 15 C-12.33 14.34 -12.66 13.68 -13 13 C-12.07767578 12.74476563 -12.07767578 12.74476563 -11.13671875 12.484375 C-6.18596549 11.05093751 -6.18596549 11.05093751 -2 8.1875 C-0.76313916 5.48186691 -0.33472639 2.94559226 0 0 Z " fill="#FCB518" transform="translate(808,755)"/>
<path d="M0 0 C0.66 0.33 1.32 0.66 2 1 C1.6875 2.875 1.6875 2.875 1 5 C0.01 5.66 -0.98 6.32 -2 7 C-2.33 7.99 -2.66 8.98 -3 10 C-3.99 10 -4.98 10 -6 10 C-6.4021875 11.2065625 -6.4021875 11.2065625 -6.8125 12.4375 C-7.4003125 13.7059375 -7.4003125 13.7059375 -8 15 C-8.99 15.33 -9.98 15.66 -11 16 C-9.69891569 11.12450824 -7.82914252 8.2765221 -4.375 4.625 C-3.14910156 3.31402344 -3.14910156 3.31402344 -1.8984375 1.9765625 C-1.27195312 1.32429687 -0.64546875 0.67203125 0 0 Z " fill="#FDE529" transform="translate(371,239)"/>
<path d="M0 0 C1.16796875 1.48828125 1.16796875 1.48828125 2 4 C1.24187433 6.88907349 0.41090194 9.43537932 -0.6875 12.1875 C-0.95755859 12.92419922 -1.22761719 13.66089844 -1.50585938 14.41992188 C-2.23863988 16.32095387 -3.11130049 18.16666885 -4 20 C-4.99 20.33 -5.98 20.66 -7 21 C-6.67 18.36 -6.34 15.72 -6 13 C-5.34 13 -4.68 13 -4 13 C-3.79503906 12.31292969 -3.59007812 11.62585938 -3.37890625 10.91796875 C-3.10949219 10.01691406 -2.84007812 9.11585938 -2.5625 8.1875 C-2.29566406 7.29417969 -2.02882812 6.40085937 -1.75390625 5.48046875 C-1.19612127 3.64526945 -0.60655425 1.81966274 0 0 Z " fill="#FDD723" transform="translate(246,555)"/>
<path d="M0 0 C1.8125 0.1875 1.8125 0.1875 4 1 C5.04892238 2.63631892 6.04906703 4.30485863 7 6 C9.91765 7.9451 11.62537285 8.45276317 15 9 C14.67 9.99 14.34 10.98 14 12 C8.34106967 11.59579069 5.97742206 9.79663015 2 6 C0 3 0 3 0 0 Z " fill="#FDB81A" transform="translate(701,759)"/>
<path d="M0 0 C1.32 0.66 2.64 1.32 4 2 C2.88625 2.680625 2.88625 2.680625 1.75 3.375 C-2.05104686 7.003272 -3.32558901 11.09837229 -5 16 C-5.66 15.01 -6.32 14.02 -7 13 C-5.91313983 8.10912922 -3.57457605 3.57457605 0 0 Z " fill="#FEC81D" transform="translate(327,642)"/>
<path d="M0 0 C3.0171926 2.55573961 4.2432533 5.38380793 5.75 9 C6.19859375 10.051875 6.6471875 11.10375 7.109375 12.1875 C8 15 8 15 7 18 C2.51964643 14.37304711 1.0047346 9.06137765 0.3125 3.5625 C0.209375 2.386875 0.10625 1.21125 0 0 Z " fill="#FEE628" transform="translate(495,250)"/>
<path d="M0 0 C0.8125 1.6875 0.8125 1.6875 1 4 C-1.46026571 6.87030999 -3.85489214 8.90326143 -7 11 C-9.6875 11.125 -9.6875 11.125 -12 11 C-11.67 10.34 -11.34 9.68 -11 9 C-10.34 9 -9.68 9 -9 9 C-9 8.34 -9 7.68 -9 7 C-7.88625 6.6596875 -7.88625 6.6596875 -6.75 6.3125 C-3.48860409 4.75592468 -2.07105025 2.91481146 0 0 Z " fill="#FEB112" transform="translate(679,758)"/>
<path d="M0 0 C5.99172349 1.8831131 9.46569804 5.9775709 13 11 C12.34 11 11.68 11 11 11 C10.67 11.66 10.34 12.32 10 13 C9.608125 12.236875 9.21625 11.47375 8.8125 10.6875 C6.82673 7.74308242 5.03986619 6.72532946 2 5 C2 4.34 2 3.68 2 3 C1.34 3 0.68 3 0 3 C0 2.01 0 1.02 0 0 Z " fill="#FDE41F" transform="translate(481,237)"/>
<path d="M0 0 C0.66 0 1.32 0 2 0 C2.70088156 1.74468372 3.38524009 3.49601161 4.0625 5.25 C4.44535156 6.22453125 4.82820312 7.1990625 5.22265625 8.203125 C6.01113787 11.04007395 6.02437812 12.29409552 5 15 C2.00240068 13.50120034 1.69211326 11.19691136 0.59765625 8.14453125 C-0.17376071 5.3765057 -0.21405269 2.8540358 0 0 Z " fill="#FDBC16" transform="translate(546,687)"/>
<path d="M0 0 C2.92586433 1.46293216 3.05946588 3.40270098 4.125 6.4375 C4.47820313 7.42621094 4.83140625 8.41492188 5.1953125 9.43359375 C6 12 6 12 6 14 C5.34 14 4.68 14 4 14 C4 13.34 4 12.68 4 12 C3.01 11.67 2.02 11.34 1 11 C0.67 7.37 0.34 3.74 0 0 Z " fill="#FEBD12" transform="translate(537,662)"/>
<path d="M0 0 C0.33 0 0.66 0 1 0 C1.36134972 5.78159553 0.45790037 9.72006588 -2 15 C-2.99 15.33 -3.98 15.66 -5 16 C-5.33 15.01 -5.66 14.02 -6 13 C-5.34 13 -4.68 13 -4 13 C-3.896875 12.34 -3.79375 11.68 -3.6875 11 C-2.80786436 7.16158991 -1.43030104 3.66903309 0 0 Z " fill="#FDDD2A" transform="translate(270,491)"/>
<path d="M0 0 C1 2 1 2 0.00390625 5.2578125 C-0.46889984 6.5497052 -0.94971969 7.83868638 -1.4375 9.125 C-1.68048828 9.78371094 -1.92347656 10.44242187 -2.17382812 11.12109375 C-2.77578321 12.74991338 -3.38702412 14.37529575 -4 16 C-5.109375 14.35546875 -5.109375 14.35546875 -6 12 C-5.390625 9.23828125 -5.390625 9.23828125 -4.25 6.3125 C-3.88390625 5.33925781 -3.5178125 4.36601562 -3.140625 3.36328125 C-2 1 -2 1 0 0 Z " fill="#FEDD20" transform="translate(417,386)"/>
<path d="M0 0 C0.99 0.33 1.98 0.66 3 1 C4.203125 3.43359375 4.203125 3.43359375 5.25 6.4375 C5.60578125 7.42621094 5.9615625 8.41492188 6.328125 9.43359375 C7 12 7 12 6 14 C3.2079853 12.60399265 2.99837067 10.99583616 1.875 8.125 C1.34519531 6.79855469 1.34519531 6.79855469 0.8046875 5.4453125 C0 3 0 3 0 0 Z " fill="#FEDE20" transform="translate(568,444)"/>
<path d="M0 0 C1.78016355 2.67024533 2.97163019 5.05030861 4.1875 8 C4.55230469 8.86625 4.91710937 9.7325 5.29296875 10.625 C6 13 6 13 5 16 C2.05766405 14.52883203 1.66202197 12.17404609 0.59765625 9.2109375 C-0.26387145 6.02384809 -0.20529942 3.28479071 0 0 Z " fill="#FDE028" transform="translate(552,397)"/>
<path d="M0 0 C1.79378179 2.69067269 2.97313958 5.08578257 4.1875 8.0625 C4.55230469 8.94035156 4.91710937 9.81820313 5.29296875 10.72265625 C6 13 6 13 5 15 C1.56097181 12.70731454 1.35147553 11.88956548 0.25 8.0625 C-0.01296875 7.18722656 -0.2759375 6.31195313 -0.546875 5.41015625 C-1 3 -1 3 0 0 Z " fill="#FDE528" transform="translate(503,268)"/>
<path d="M0 0 C0.33 0 0.66 0 1 0 C1.36134972 5.78159553 0.45790037 9.72006588 -2 15 C-2.99 15.33 -3.98 15.66 -5 16 C-3.41078475 10.63904723 -1.81027062 5.29156027 0 0 Z " fill="#FECF25" transform="translate(215,638)"/>
<path d="M0 0 C0.66 0.66 1.32 1.32 2 2 C1 5 1 5 0 6 C-0.4896472 8.31469584 -0.89901 10.63794836 -1.3046875 12.96875 C-1.53414063 13.6390625 -1.76359375 14.309375 -2 15 C-2.99 15.33 -3.98 15.66 -5 16 C-4.34309381 12.21760329 -3.279869 8.78158474 -1.9375 5.1875 C-1.57527344 4.21167969 -1.21304687 3.23585938 -0.83984375 2.23046875 C-0.42412109 1.12638672 -0.42412109 1.12638672 0 0 Z " fill="#FDE42D" transform="translate(322,354)"/>
<path d="M0 0 C1.91385532 2.87078299 2.96432952 5.33411656 4.125 8.5625 C4.47820313 9.53316406 4.83140625 10.50382812 5.1953125 11.50390625 C6 14 6 14 6 16 C5.01 15.67 4.02 15.34 3 15 C2.87625 14.236875 2.7525 13.47375 2.625 12.6875 C2.11897208 9.79732864 2.11897208 9.79732864 0 7 C-1.22222222 2.44444444 -1.22222222 2.44444444 0 0 Z " fill="#FEE227" transform="translate(540,365)"/>
<path d="M0 0 C3 1 3 1 3.984375 2.7421875 C4.23703125 3.44601562 4.4896875 4.14984375 4.75 4.875 C5.01296875 5.57367187 5.2759375 6.27234375 5.546875 6.9921875 C6 9 6 9 5 12 C4.34 12 3.68 12 3 12 C2.49166409 10.75336669 1.99368855 9.50250613 1.5 8.25 C1.2215625 7.55390625 0.943125 6.8578125 0.65625 6.140625 C0 4 0 4 0 0 Z " fill="#FEC61A" transform="translate(649,661)"/>
<path d="M0 0 C-0.556875 0.268125 -1.11375 0.53625 -1.6875 0.8125 C-4.09821537 2.00329541 -4.09821537 2.00329541 -6.625 3.6875 C-7.40875 4.120625 -8.1925 4.55375 -9 5 C-9.66 4.67 -10.32 4.34 -11 4 C-11 3.01 -11 2.02 -11 1 C-7.2297564 -1.56376565 -4.32597804 -0.83191885 0 0 Z " fill="#FEE420" transform="translate(717,235)"/>
<path d="M0 0 C1.32 0 2.64 0 4 0 C4 0.66 4 1.32 4 2 C5.3921875 2.185625 5.3921875 2.185625 6.8125 2.375 C10 3 10 3 13 5 C4.2404908 5.44539877 4.2404908 5.44539877 0 2 C0 1.34 0 0.68 0 0 Z " fill="#FDAF12" transform="translate(183,765)"/>
<path d="M0 0 C4 1 4 1 5.3359375 2.9609375 C5.85027344 4.15589844 5.85027344 4.15589844 6.375 5.375 C6.73335938 6.16648437 7.09171875 6.95796875 7.4609375 7.7734375 C7.63882812 8.50820313 7.81671875 9.24296875 8 10 C7.01 11.485 7.01 11.485 6 13 C4.02 8.71 2.04 4.42 0 0 Z " fill="#FEDD21" transform="translate(433,376)"/>
<path d="M0 0 C0.33 0 0.66 0 1 0 C1.28449064 4.93117109 1.13433082 7.21268359 -2 11 C-2 12.32 -2 13.64 -2 15 C-2.99 15.33 -3.98 15.66 -5 16 C-4.39363767 10.23955788 -2.24341721 5.27985631 0 0 Z " fill="#FDE732" transform="translate(337,314)"/>
<path d="M0 0 C0.33 0 0.66 0 1 0 C1.31565274 5.26087893 0.7659748 8.49248551 -2 13 C-3.6875 14.875 -3.6875 14.875 -5 16 C-4.34309381 12.21760329 -3.279869 8.78158474 -1.9375 5.1875 C-1.57527344 4.21167969 -1.21304687 3.23585938 -0.83984375 2.23046875 C-0.42412109 1.12638672 -0.42412109 1.12638672 0 0 Z " fill="#FEE731" transform="translate(346,290)"/>
<path d="M0 0 C0.99 0.33 1.98 0.66 3 1 C3.66015625 2.8125 3.66015625 2.8125 4.0625 5 C4.42700873 7.14055297 4.42700873 7.14055297 5 9 C5.66 9.33 6.32 9.66 7 10 C6.34 10.66 5.68 11.32 5 12 C2.43470546 10.71735273 2.33500137 9.77227651 1.375 7.125 C1.11460937 6.42632813 0.85421875 5.72765625 0.5859375 5.0078125 C0 3 0 3 0 0 Z " fill="#FECB1E" transform="translate(641,639)"/>
<path d="M0 0 C1.25955231 3.77865693 0.48087189 5.03411786 -0.9375 8.6875 C-1.31777344 9.68136719 -1.69804687 10.67523438 -2.08984375 11.69921875 C-2.39019531 12.45847656 -2.69054687 13.21773438 -3 14 C-4.49767311 11.62868424 -5.08237812 10.4901498 -4.609375 7.67578125 C-4.32578125 6.89589844 -4.0421875 6.11601562 -3.75 5.3125 C-3.47671875 4.52488281 -3.2034375 3.73726563 -2.921875 2.92578125 C-2 1 -2 1 0 0 Z " fill="#FDDD23" transform="translate(403,424)"/>
<path d="M0 0 C2.16321167 3.24481751 3.6314591 6.35055759 5 10 C4.67 10.99 4.34 11.98 4 13 C1.7522025 10.94766315 0.9977758 9.99332739 0 7 C-0.03954234 4.66700175 -0.04401732 2.33291811 0 0 Z " fill="#FDE429" transform="translate(519,310)"/>
<path d="M0 0 C1.23593891 3.70781672 0.5678132 4.67510253 -0.9375 8.1875 C-1.31777344 9.08855469 -1.69804687 9.98960937 -2.08984375 10.91796875 C-2.54037109 11.94857422 -2.54037109 11.94857422 -3 13 C-3.33 13 -3.66 13 -4 13 C-3.88541307 11.56163249 -3.75790884 10.12429034 -3.625 8.6875 C-3.55539062 7.88699219 -3.48578125 7.08648437 -3.4140625 6.26171875 C-2.93323575 3.63531602 -1.90798913 1.90798913 0 0 Z " fill="#FDDE28" transform="translate(396,443)"/>
<path d="M0 0 C1.47006623 4.41019868 0.43537323 7.69388031 -1 12 C-1.99 12.33 -2.98 12.66 -4 13 C-3.52140759 11.39566191 -3.04210442 9.79153584 -2.5625 8.1875 C-2.29566406 7.29417969 -2.02882813 6.40085937 -1.75390625 5.48046875 C-1.19612127 3.64526945 -0.60655425 1.81966274 0 0 Z " fill="#FEE32F" transform="translate(298,417)"/>
<path d="M0 0 C1.90389849 2.85584773 2.69462177 4.9311762 3.625 8.1875 C4.01558594 9.53908203 4.01558594 9.53908203 4.4140625 10.91796875 C4.60742188 11.60503906 4.80078125 12.29210937 5 13 C1.125 10.375 1.125 10.375 0 7 C-0.03954234 4.66700175 -0.04401732 2.33291811 0 0 Z " fill="#FED228" transform="translate(631,608)"/>
<path d="M0 0 C2 4 2 4 1.75 6.125 C1 8 1 8 -1 10 C-1.66 10 -2.32 10 -3 10 C-2.01 6.7 -1.02 3.4 0 0 Z " fill="#FDDE28" transform="translate(278,470)"/>
<path d="M0 0 C0 0.66 0 1.32 0 2 C-6.625 3.25 -6.625 3.25 -10 1 C-3.71428571 -1.42857143 -3.71428571 -1.42857143 0 0 Z " fill="#FDE62A" transform="translate(388,234)"/>
<path d="M0 0 C3 2 3 2 3.51171875 3.9453125 C3.67447917 5.96354167 3.83723958 7.98177083 4 10 C3.67 9.34 3.34 8.68 3 8 C2.34 8 1.68 8 1 8 C0.67 5.36 0.34 2.72 0 0 Z " fill="#FEB50F" transform="translate(561,728)"/>
<path d="M0 0 C0.66 0 1.32 0 2 0 C2.25 7.625 2.25 7.625 0 11 C-0.66 11 -1.32 11 -2 11 C-1.34 7.37 -0.68 3.74 0 0 Z " fill="#FDC62A" transform="translate(184,720)"/>
<path d="M0 0 C0.33 0 0.66 0 1 0 C1.125 6.625 1.125 6.625 0 10 C-0.99 10.33 -1.98 10.66 -3 11 C-2.44894091 7.0507432 -1.61064629 3.65079826 0 0 Z " fill="#FDC823" transform="translate(194,695)"/>
<path d="M0 0 C1.07174763 3.65188082 0.76411467 6.26432828 0 10 C-0.66 10 -1.32 10 -2 10 C-2.66 11.32 -3.32 12.64 -4 14 C-3.21824485 9.15311808 -1.60155722 4.6233633 0 0 Z " fill="#FECF2F" transform="translate(203,670)"/>
<path d="M0 0 C0.99 0.33 1.98 0.66 3 1 C3.33 1.99 3.66 2.98 4 4 C4.226875 4.66 4.45375 5.32 4.6875 6 C5 8 5 8 3 11 C2.49384702 9.73160474 1.99530901 8.46016898 1.5 7.1875 C1.2215625 6.47980469 0.943125 5.77210938 0.65625 5.04296875 C0 3 0 3 0 0 Z " fill="#FEDF29" transform="translate(440,389)"/>
<path d="M0 0 C0.33 0.66 0.66 1.32 1 2 C1.66 2 2.32 2 3 2 C4.125 4.8125 4.125 4.8125 5 8 C4.01 9.485 4.01 9.485 3 11 C2.49384702 9.73160474 1.99530901 8.46016898 1.5 7.1875 C1.2215625 6.47980469 0.943125 5.77210938 0.65625 5.04296875 C0 3 0 3 0 0 Z " fill="#FDDA2C" transform="translate(487,512)"/>
<path d="M0 0 C0.99 0.33 1.98 0.66 3 1 C4.3125 3.875 4.3125 3.875 5 7 C4.01 8.485 4.01 8.485 3 10 C0 3.375 0 3.375 0 0 Z " fill="#FDD926" transform="translate(483,502)"/>
<path d="M0 0 C0.33 0.66 0.66 1.32 1 2 C-1.2747813 3.38111722 -2.50171361 4.05694702 -5.1875 3.75 C-7 3 -7 3 -8 1 C-2.25 -1.125 -2.25 -1.125 0 0 Z " fill="#FDBE20" transform="translate(803,767)"/>
<path d="M0 0 C0.33 0 0.66 0 1 0 C1.25 6.625 1.25 6.625 -1 10 C-1.66 10 -2.32 10 -3 10 C-2.01 6.7 -1.02 3.4 0 0 Z " fill="#FED729" transform="translate(230,598)"/>
<path d="M0 0 C1.80125336 2.70188004 3.00243753 4.93057703 4 8 C3.67 8.99 3.34 9.98 3 11 C3 10.34 3 9.68 3 9 C2.34 9 1.68 9 1 9 C-1.09230769 4.56923077 -1.09230769 4.56923077 -0.625 1.6875 C-0.41875 1.130625 -0.2125 0.57375 0 0 Z " fill="#FED227" transform="translate(627,597)"/>
<path d="M0 0 C1 2 1 2 0.44140625 4.1640625 C0.15136719 4.97617187 -0.13867188 5.78828125 -0.4375 6.625 C-0.72496094 7.44226563 -1.01242187 8.25953125 -1.30859375 9.1015625 C-1.53675781 9.72804688 -1.76492188 10.35453125 -2 11 C-2.33 11 -2.66 11 -3 11 C-3.125 4.375 -3.125 4.375 -2 1 C-1.34 0.67 -0.68 0.34 0 0 Z " fill="#FEDB2B" transform="translate(369,516)"/>
<path d="M0 0 C0.99 0 1.98 0 3 0 C2.01 3.3 1.02 6.6 0 10 C-2 6 -2 6 -1.125 2.75 C-0.75375 1.8425 -0.3825 0.935 0 0 Z " fill="#FDDC2A" transform="translate(409,403)"/>
<path d="M0 0 C0.99 0.33 1.98 0.66 3 1 C4.3125 3.875 4.3125 3.875 5 7 C4.01 8.485 4.01 8.485 3 10 C0 3.375 0 3.375 0 0 Z " fill="#FDDD2B" transform="translate(444,400)"/>
<path d="M0 0 C0.33 0 0.66 0 1 0 C1.125 6.75 1.125 6.75 0 9 C-0.66 9 -1.32 9 -2 9 C-2.33 9.66 -2.66 10.32 -3 11 C-2.44894091 7.0507432 -1.61064629 3.65079826 0 0 Z " fill="#FDE430" transform="translate(314,375)"/>
<path d="M0 0 C3.82097239 0.53069061 6.06171403 1.49701566 9 4 C8.67 4.66 8.34 5.32 8 6 C4.5625 4.6875 4.5625 4.6875 1 3 C0.67 2.01 0.34 1.02 0 0 Z " fill="#FBE232" transform="translate(798,234)"/>
<path d="M0 0 C1 2 1 2 0.44140625 3.9453125 C0.15136719 4.66460937 -0.13867188 5.38390625 -0.4375 6.125 C-0.72496094 6.84945313 -1.01242187 7.57390625 -1.30859375 8.3203125 C-1.53675781 8.87460937 -1.76492188 9.42890625 -2 10 C-3.125 8.3125 -3.125 8.3125 -4 6 C-3.25 3.3125 -3.25 3.3125 -2 1 C-1.34 0.67 -0.68 0.34 0 0 Z " fill="#FEDC26" transform="translate(384,476)"/>
<path d="M0 0 C1.13643966 3.40931897 0.86747764 4.00335456 -0.4375 7.1875 C-0.86869141 8.26064453 -0.86869141 8.26064453 -1.30859375 9.35546875 C-1.53675781 9.89816406 -1.76492188 10.44085937 -2 11 C-3.24386556 7.26840331 -2.77811718 4.81984796 -2 1 C-1.34 0.67 -0.68 0.34 0 0 Z " fill="#FDDD2C" transform="translate(374,502)"/>
<path d="M0 0 C0.99 0 1.98 0 3 0 C4 3 4 3 3 6 C3.66 6.33 4.32 6.66 5 7 C4.01 8.485 4.01 8.485 3 10 C2.01 6.7 1.02 3.4 0 0 Z " fill="#FDDD2D" transform="translate(465,456)"/>
<path d="M0 0 C1.2380014 3.57644848 0.74926071 6.33694766 0 10 C-0.99 10.33 -1.98 10.66 -3 11 C-2.32829194 7.1936543 -1.27253436 3.64793184 0 0 Z " fill="#FDE43C" transform="translate(288,443)"/>
<path d="M0 0 C5.75 0.75 5.75 0.75 8 3 C6.125 4.0625 6.125 4.0625 4 5 C3.34 4.67 2.68 4.34 2 4 C2 3.01 2 2.02 2 1 C1.34 0.67 0.68 0.34 0 0 Z " fill="#FDE527" transform="translate(473,234)"/>
<path d="M0 0 C0 1.98 0 3.96 0 6 C-0.99 6.33 -1.98 6.66 -3 7 C-3 5.02 -3 3.04 -3 1 C-1 0 -1 0 0 0 Z " fill="#FFBA0F" transform="translate(304,704)"/>
<path d="M0 0 C0.66 0 1.32 0 2 0 C3.125 2.25 3.125 2.25 4 5 C3.34 6.32 2.68 7.64 2 9 C1.34 6.03 0.68 3.06 0 0 Z " fill="#FDDF27" transform="translate(448,410)"/>
<path d="M0 0 C0.33 0.66 0.66 1.32 1 2 C0.06421005 4.35981813 -0.93347808 6.69631264 -2 9 C-2.33 9 -2.66 9 -3 9 C-3.1875 5.625 -3.1875 5.625 -3 2 C-2.01 1.34 -1.02 0.68 0 0 Z " fill="#FEE02A" transform="translate(421,377)"/>
<path d="M0 0 C2 3 2 3 1.625 5.6875 C1.41875 6.450625 1.2125 7.21375 1 8 C0.01 8 -0.98 8 -2 8 C-1.47731534 5.23723823 -0.89130413 2.6739124 0 0 Z " fill="#FEE429" transform="translate(325,346)"/>
<path d="M0 0 C1.65 0 3.3 0 5 0 C5 0.33 5 0.66 5 1 C3.35 1 1.7 1 0 1 C0 0.67 0 0.34 0 0 Z " fill="#F6B714" transform="translate(784,773)"/>
<path d="M0 0 C4 1 4 1 4 1 Z " fill="#FABA14" transform="translate(775,773)"/>
<path d="M0 0 C4 1 4 1 4 1 Z " fill="#F9BA15" transform="translate(751,773)"/>
<path d="M0 0 C4 1 4 1 4 1 Z " fill="#F9BB12" transform="translate(735,773)"/>
<path d="M0 0 C4 1 4 1 4 1 Z " fill="#FABC13" transform="translate(727,773)"/>
<path d="M0 0 C4 1 4 1 4 1 Z " fill="#FABB15" transform="translate(719,773)"/>
<path d="M0 0 C4 1 4 1 4 1 Z " fill="#FBBA11" transform="translate(631,773)"/>
<path d="M0 0 C4 1 4 1 4 1 Z " fill="#FAB912" transform="translate(607,773)"/>
<path d="M0 0 C4 1 4 1 4 1 Z " fill="#F9B813" transform="translate(247,773)"/>
<path d="M0 0 C4 1 4 1 4 1 Z " fill="#F8B915" transform="translate(239,773)"/>
<path d="M0 0 C4 1 4 1 4 1 Z " fill="#F8B914" transform="translate(231,773)"/>
<path d="M0 0 C4 1 4 1 4 1 Z " fill="#F9B913" transform="translate(223,773)"/>
<path d="M0 0 C4 1 4 1 4 1 Z " fill="#F8B915" transform="translate(215,773)"/>
<path d="M0 0 C3 1 3 1 3 1 Z " fill="#F8BB14" transform="translate(767,773)"/>
<path d="M0 0 C3 1 3 1 3 1 Z " fill="#FABB14" transform="translate(744,773)"/>
<path d="M0 0 C3 1 3 1 3 1 Z " fill="#FBBA15" transform="translate(648,773)"/>
<path d="M0 0 C3 1 3 1 3 1 Z " fill="#FBBB13" transform="translate(624,773)"/>
<path d="M0 0 C3 1 3 1 3 1 Z " fill="#F7B713" transform="translate(599,773)"/>
<path d="M0 0 C3 1 3 1 3 1 Z " fill="#F8B713" transform="translate(256,773)"/>
<path d="M0 0 C3 1 3 1 3 1 Z " fill="#F8B916" transform="translate(207,773)"/>
<path d="" fill="#FDC719" transform="translate(0,0)"/>
<path d="" fill="#FFD91B" transform="translate(0,0)"/>
<path d="" fill="#FBBA14" transform="translate(0,0)"/>
<path d="" fill="#FAB914" transform="translate(0,0)"/>
<path d="" fill="#F3B417" transform="translate(0,0)"/>
<path d="M0 0 C2 1 2 1 2 1 Z " fill="#F4B618" transform="translate(792,773)"/>
<path d="M0 0 C2 1 2 1 2 1 Z " fill="#FABC14" transform="translate(724,773)"/>
<path d="M0 0 C2 1 2 1 2 1 Z " fill="#FAB913" transform="translate(656,773)"/>
<path d="M0 0 C2 1 2 1 2 1 Z " fill="#F6B715" transform="translate(204,773)"/>
<path d="M0 0 C2 1 2 1 2 1 Z " fill="#F4B515" transform="translate(576,765)"/>
<path d="" fill="#FDC011" transform="translate(0,0)"/>
<path d="" fill="#F9BB18" transform="translate(0,0)"/>
<path d="" fill="#F8C018" transform="translate(0,0)"/>
<path d="M0 0 C2 1 2 1 2 1 Z " fill="#FDC014" transform="translate(547,702)"/>
<path d="" fill="#FDC712" transform="translate(0,0)"/>
<path d="" fill="#FEC410" transform="translate(0,0)"/>
<path d="M0 0 C2 1 2 1 2 1 Z " fill="#FFCA13" transform="translate(518,643)"/>
<path d="" fill="#FBCF19" transform="translate(0,0)"/>
<path d="" fill="#F9D821" transform="translate(0,0)"/>
<path d="" fill="#FFD918" transform="translate(0,0)"/>
<path d="" fill="#FFDC16" transform="translate(0,0)"/>
<path d="" fill="#FBDB1F" transform="translate(0,0)"/>
<path d="" fill="#FFDC1A" transform="translate(0,0)"/>
<path d="" fill="#FCD91B" transform="translate(0,0)"/>
<path d="" fill="#FEDF17" transform="translate(0,0)"/>
<path d="" fill="#FEDF15" transform="translate(0,0)"/>
<path d="" fill="#FBE11E" transform="translate(0,0)"/>
<path d="" fill="#F7DF1E" transform="translate(0,0)"/>
<path d="" fill="#FEE018" transform="translate(0,0)"/>
<path d="" fill="#5B5624" transform="translate(0,0)"/>
<path d="" fill="#615720" transform="translate(0,0)"/>
<path d="" fill="#63561D" transform="translate(0,0)"/>
<path d="" fill="#574E1C" transform="translate(0,0)"/>
<path d="" fill="#584D1D" transform="translate(0,0)"/>
<path d="" fill="#65551C" transform="translate(0,0)"/>
<path d="" fill="#574D1B" transform="translate(0,0)"/>
<path d="" fill="#584B1B" transform="translate(0,0)"/>
<path d="" fill="#5E521B" transform="translate(0,0)"/>
<path d="" fill="#575121" transform="translate(0,0)"/>
<path d="" fill="#584D19" transform="translate(0,0)"/>
<path d="" fill="#574D1C" transform="translate(0,0)"/>
<path d="" fill="#5A5624" transform="translate(0,0)"/>
<path d="" fill="#5B5421" transform="translate(0,0)"/>
<path d="" fill="#564C1B" transform="translate(0,0)"/>
<path d="" fill="#5B501E" transform="translate(0,0)"/>
<path d="" fill="#61571D" transform="translate(0,0)"/>
<path d="" fill="#67551A" transform="translate(0,0)"/>
<path d="" fill="#5E501A" transform="translate(0,0)"/>
<path d="" fill="#584C1A" transform="translate(0,0)"/>
<path d="" fill="#5C5928" transform="translate(0,0)"/>
<path d="" fill="#5A5523" transform="translate(0,0)"/>
<path d="" fill="#5A5521" transform="translate(0,0)"/>
<path d="" fill="#594E1A" transform="translate(0,0)"/>
<path d="" fill="#594D19" transform="translate(0,0)"/>
<path d="" fill="#5C5829" transform="translate(0,0)"/>
<path d="" fill="#665617" transform="translate(0,0)"/>
<path d="" fill="#594D19" transform="translate(0,0)"/>
<path d="" fill="#695719" transform="translate(0,0)"/>
<path d="" fill="#685617" transform="translate(0,0)"/>
<path d="" fill="#5B4C17" transform="translate(0,0)"/>
<path d="" fill="#5B4C18" transform="translate(0,0)"/>
<path d="" fill="#665519" transform="translate(0,0)"/>
<path d="" fill="#5E541D" transform="translate(0,0)"/>
<path d="" fill="#65571A" transform="translate(0,0)"/>
<path d="" fill="#6C5A16" transform="translate(0,0)"/>
<path d="" fill="#5C4D17" transform="translate(0,0)"/>
<path d="" fill="#635416" transform="translate(0,0)"/>
<path d="" fill="#5C5423" transform="translate(0,0)"/>
<path d="" fill="#5E541E" transform="translate(0,0)"/>
<path d="" fill="#745E17" transform="translate(0,0)"/>
<path d="" fill="#6F5918" transform="translate(0,0)"/>
<path d="" fill="#6D5916" transform="translate(0,0)"/>
<path d="" fill="#625016" transform="translate(0,0)"/>
<path d="" fill="#605015" transform="translate(0,0)"/>
<path d="" fill="#685618" transform="translate(0,0)"/>
<path d="" fill="#5E541E" transform="translate(0,0)"/>
<path d="" fill="#695919" transform="translate(0,0)"/>
<path d="" fill="#735D17" transform="translate(0,0)"/>
<path d="" fill="#715D17" transform="translate(0,0)"/>
<path d="" fill="#635216" transform="translate(0,0)"/>
<path d="" fill="#615116" transform="translate(0,0)"/>
<path d="" fill="#695518" transform="translate(0,0)"/>
<path d="" fill="#6B5516" transform="translate(0,0)"/>
<path d="" fill="#5B5120" transform="translate(0,0)"/>
<path d="" fill="#735C15" transform="translate(0,0)"/>
<path d="" fill="#665316" transform="translate(0,0)"/>
<path d="" fill="#665416" transform="translate(0,0)"/>
<path d="" fill="#755C15" transform="translate(0,0)"/>
<path d="" fill="#7D6517" transform="translate(0,0)"/>
<path d="" fill="#755C16" transform="translate(0,0)"/>
<path d="" fill="#735A14" transform="translate(0,0)"/>
<path d="" fill="#5F5A24" transform="translate(0,0)"/>
<path d="" fill="#876818" transform="translate(0,0)"/>
<path d="" fill="#6D5D1B" transform="translate(0,0)"/>
<path d="" fill="#A57D17" transform="translate(0,0)"/>
<path d="" fill="#645720" transform="translate(0,0)"/>
<path d="" fill="#8C6C15" transform="translate(0,0)"/>
<path d="" fill="#A67E15" transform="translate(0,0)"/>
<path d="" fill="#8B6A16" transform="translate(0,0)"/>
<path d="" fill="#987518" transform="translate(0,0)"/>
<path d="" fill="#6E5D22" transform="translate(0,0)"/>
<path d="" fill="#F3B315" transform="translate(0,0)"/>
<path d="" fill="#F3B318" transform="translate(0,0)"/>
<path d="" fill="#FABB13" transform="translate(0,0)"/>
<path d="" fill="#FBBD13" transform="translate(0,0)"/>
<path d="" fill="#FABC12" transform="translate(0,0)"/>
<path d="" fill="#FABC13" transform="translate(0,0)"/>
<path d="" fill="#FBB914" transform="translate(0,0)"/>
<path d="" fill="#FBB815" transform="translate(0,0)"/>
<path d="" fill="#F9B716" transform="translate(0,0)"/>
<path d="" fill="#FDBA11" transform="translate(0,0)"/>
<path d="" fill="#FAB912" transform="translate(0,0)"/>
<path d="" fill="#FAB910" transform="translate(0,0)"/>
<path d="" fill="#FAB813" transform="translate(0,0)"/>
<path d="" fill="#F4B715" transform="translate(0,0)"/>
<path d="" fill="#F9B912" transform="translate(0,0)"/>
<path d="" fill="#FAB914" transform="translate(0,0)"/>
<path d="" fill="#F8B817" transform="translate(0,0)"/>
<path d="" fill="#F8B616" transform="translate(0,0)"/>
<path d="" fill="#F2B517" transform="translate(0,0)"/>
<path d="" fill="#F7B411" transform="translate(0,0)"/>
<path d="" fill="#EDB117" transform="translate(0,0)"/>
<path d="" fill="#F7B619" transform="translate(0,0)"/>
<path d="" fill="#FBBC13" transform="translate(0,0)"/>
<path d="" fill="#EFB21C" transform="translate(0,0)"/>
<path d="" fill="#F8B511" transform="translate(0,0)"/>
<path d="" fill="#F7B616" transform="translate(0,0)"/>
<path d="" fill="#FDBC16" transform="translate(0,0)"/>
<path d="" fill="#F8B515" transform="translate(0,0)"/>
<path d="" fill="#F4B819" transform="translate(0,0)"/>
<path d="" fill="#FAC014" transform="translate(0,0)"/>
<path d="" fill="#FFC217" transform="translate(0,0)"/>
<path d="" fill="#FEBC0F" transform="translate(0,0)"/>
<path d="" fill="#F9B912" transform="translate(0,0)"/>
<path d="" fill="#F9B810" transform="translate(0,0)"/>
<path d="" fill="#F4BA1C" transform="translate(0,0)"/>
<path d="" fill="#F4B919" transform="translate(0,0)"/>
<path d="" fill="#F3BB1B" transform="translate(0,0)"/>
<path d="" fill="#FDBD10" transform="translate(0,0)"/>
<path d="" fill="#FEC013" transform="translate(0,0)"/>
<path d="" fill="#FFC413" transform="translate(0,0)"/>
<path d="" fill="#FDC016" transform="translate(0,0)"/>
<path d="" fill="#998123" transform="translate(0,0)"/>
<path d="" fill="#FFC515" transform="translate(0,0)"/>
<path d="" fill="#FAC219" transform="translate(0,0)"/>
<path d="" fill="#F9BF1C" transform="translate(0,0)"/>
<path d="" fill="#FAC217" transform="translate(0,0)"/>
<path d="" fill="#F9BF11" transform="translate(0,0)"/>
<path d="" fill="#FFC915" transform="translate(0,0)"/>
<path d="" fill="#FEBF13" transform="translate(0,0)"/>
<path d="" fill="#FCC116" transform="translate(0,0)"/>
<path d="" fill="#F9C218" transform="translate(0,0)"/>
<path d="" fill="#F8C21A" transform="translate(0,0)"/>
<path d="" fill="#FEC00E" transform="translate(0,0)"/>
<path d="" fill="#FDC218" transform="translate(0,0)"/>
<path d="" fill="#FCBE13" transform="translate(0,0)"/>
<path d="" fill="#FBC219" transform="translate(0,0)"/>
<path d="" fill="#F8C31A" transform="translate(0,0)"/>
<path d="" fill="#FDC412" transform="translate(0,0)"/>
<path d="" fill="#FCC815" transform="translate(0,0)"/>
<path d="" fill="#FCC811" transform="translate(0,0)"/>
<path d="" fill="#FEC612" transform="translate(0,0)"/>
<path d="" fill="#FAC71A" transform="translate(0,0)"/>
<path d="" fill="#FAC411" transform="translate(0,0)"/>
<path d="" fill="#FFC514" transform="translate(0,0)"/>
<path d="" fill="#FEC716" transform="translate(0,0)"/>
<path d="" fill="#FFC415" transform="translate(0,0)"/>
<path d="" fill="#FFC413" transform="translate(0,0)"/>
<path d="" fill="#FDC717" transform="translate(0,0)"/>
<path d="" fill="#FEC419" transform="translate(0,0)"/>
<path d="" fill="#FCC81B" transform="translate(0,0)"/>
<path d="" fill="#FECA17" transform="translate(0,0)"/>
<path d="" fill="#FEC815" transform="translate(0,0)"/>
<path d="" fill="#FBCA18" transform="translate(0,0)"/>
<path d="" fill="#FCCC15" transform="translate(0,0)"/>
<path d="" fill="#FFCA15" transform="translate(0,0)"/>
<path d="" fill="#FFCE10" transform="translate(0,0)"/>
<path d="" fill="#FBCC1A" transform="translate(0,0)"/>
<path d="" fill="#FAC71D" transform="translate(0,0)"/>
<path d="" fill="#B99E21" transform="translate(0,0)"/>
<path d="" fill="#FECB16" transform="translate(0,0)"/>
<path d="" fill="#FFC914" transform="translate(0,0)"/>
<path d="" fill="#FEC811" transform="translate(0,0)"/>
<path d="" fill="#FFCD15" transform="translate(0,0)"/>
<path d="" fill="#FFCD16" transform="translate(0,0)"/>
<path d="" fill="#988323" transform="translate(0,0)"/>
<path d="" fill="#FFCE14" transform="translate(0,0)"/>
<path d="" fill="#FCD115" transform="translate(0,0)"/>
<path d="" fill="#FDD018" transform="translate(0,0)"/>
<path d="" fill="#FDD419" transform="translate(0,0)"/>
<path d="" fill="#83772A" transform="translate(0,0)"/>
<path d="" fill="#FFDA1A" transform="translate(0,0)"/>
<path d="" fill="#FFDC1B" transform="translate(0,0)"/>
<path d="" fill="#FAD51F" transform="translate(0,0)"/>
<path d="" fill="#FCD918" transform="translate(0,0)"/>
<path d="" fill="#FCD516" transform="translate(0,0)"/>
<path d="" fill="#837C27" transform="translate(0,0)"/>
<path d="" fill="#FDDB1E" transform="translate(0,0)"/>
<path d="" fill="#FFDC17" transform="translate(0,0)"/>
<path d="" fill="#FEDC16" transform="translate(0,0)"/>
<path d="" fill="#FEDC1A" transform="translate(0,0)"/>
<path d="" fill="#FCDB13" transform="translate(0,0)"/>
<path d="" fill="#FDD81D" transform="translate(0,0)"/>
<path d="" fill="#F8D91F" transform="translate(0,0)"/>
<path d="" fill="#FFDB1D" transform="translate(0,0)"/>
<path d="" fill="#FDDA1A" transform="translate(0,0)"/>
<path d="" fill="#FCD91A" transform="translate(0,0)"/>
<path d="" fill="#FDDD19" transform="translate(0,0)"/>
<path d="" fill="#FFE018" transform="translate(0,0)"/>
<path d="" fill="#FEDB1B" transform="translate(0,0)"/>
<path d="" fill="#FEDC12" transform="translate(0,0)"/>
<path d="" fill="#FBDD1D" transform="translate(0,0)"/>
<path d="" fill="#FEDF18" transform="translate(0,0)"/>
<path d="" fill="#FDDC1C" transform="translate(0,0)"/>
<path d="" fill="#FEDD19" transform="translate(0,0)"/>
<path d="" fill="#FEDC11" transform="translate(0,0)"/>
<path d="" fill="#FEDD1A" transform="translate(0,0)"/>
<path d="" fill="#FADB1F" transform="translate(0,0)"/>
<path d="" fill="#F8DB1E" transform="translate(0,0)"/>
<path d="" fill="#FFDE1A" transform="translate(0,0)"/>
<path d="" fill="#FDDD19" transform="translate(0,0)"/>
<path d="" fill="#FFDD19" transform="translate(0,0)"/>
<path d="" fill="#FFDE18" transform="translate(0,0)"/>
<path d="" fill="#FADB1E" transform="translate(0,0)"/>
<path d="" fill="#FEDF1B" transform="translate(0,0)"/>
<path d="" fill="#F8DA1C" transform="translate(0,0)"/>
<path d="" fill="#FCDE1D" transform="translate(0,0)"/>
<path d="" fill="#FFDE14" transform="translate(0,0)"/>
<path d="" fill="#706D2C" transform="translate(0,0)"/>
<path d="" fill="#FFDF19" transform="translate(0,0)"/>
<path d="" fill="#F8D914" transform="translate(0,0)"/>
<path d="" fill="#FDDC1C" transform="translate(0,0)"/>
<path d="" fill="#F6DF22" transform="translate(0,0)"/>
<path d="" fill="#FADC17" transform="translate(0,0)"/>
<path d="" fill="#FFE01A" transform="translate(0,0)"/>
<path d="" fill="#6C6828" transform="translate(0,0)"/>
<path d="" fill="#FFDF19" transform="translate(0,0)"/>
<path d="" fill="#FBDE1B" transform="translate(0,0)"/>
<path d="" fill="#FFE214" transform="translate(0,0)"/>
<path d="" fill="#FBDE1B" transform="translate(0,0)"/>
<path d="" fill="#FBDD1E" transform="translate(0,0)"/>
<path d="" fill="#FADB17" transform="translate(0,0)"/>
<path d="" fill="#FFDF18" transform="translate(0,0)"/>
<path d="" fill="#F7DD21" transform="translate(0,0)"/>
<path d="" fill="#888027" transform="translate(0,0)"/>
<path d="" fill="#7D7727" transform="translate(0,0)"/>
<path d="" fill="#FFDF16" transform="translate(0,0)"/>
<path d="" fill="#8A8426" transform="translate(0,0)"/>
<path d="" fill="#FFE017" transform="translate(0,0)"/>
<path d="" fill="#FFE216" transform="translate(0,0)"/>
<path d="" fill="#FFE41B" transform="translate(0,0)"/>
<path d="" fill="#F8DB20" transform="translate(0,0)"/>
<path d="" fill="#F9E023" transform="translate(0,0)"/>
<path d="" fill="#7D792C" transform="translate(0,0)"/>
<path d="" fill="#7E7B26" transform="translate(0,0)"/>
<path d="" fill="#67672D" transform="translate(0,0)"/>
<path d="" fill="#696830" transform="translate(0,0)"/>
<path d="" fill="#FCE419" transform="translate(0,0)"/>
<path d="" fill="#F7DE24" transform="translate(0,0)"/>
<path d="" fill="#726F28" transform="translate(0,0)"/>
<path d="" fill="#F6DF1D" transform="translate(0,0)"/>
<path d="" fill="#FCE01A" transform="translate(0,0)"/>
<path d="" fill="#F9E21F" transform="translate(0,0)"/>
<path d="" fill="#F9E01D" transform="translate(0,0)"/>
<path d="" fill="#FDE11B" transform="translate(0,0)"/>
<path d="" fill="#F9DD17" transform="translate(0,0)"/>
<path d="" fill="#F7DC18" transform="translate(0,0)"/>
<path d="" fill="#FBE11B" transform="translate(0,0)"/>
<path d="" fill="#7A7928" transform="translate(0,0)"/>
<path d="" fill="#EDD923" transform="translate(0,0)"/>
<path d="" fill="#F5DA29" transform="translate(0,0)"/>
<path d="" fill="#F0DA1C" transform="translate(0,0)"/>
<path d="" fill="#F7E024" transform="translate(0,0)"/>
<path d="" fill="#F5E025" transform="translate(0,0)"/>
<path d="" fill="#F2DA23" transform="translate(0,0)"/>
<path d="" fill="#F6E122" transform="translate(0,0)"/>
<path d="" fill="#F7E123" transform="translate(0,0)"/>
<path d="" fill="#5B5C2C" transform="translate(0,0)"/>
<path d="" fill="#928D26" transform="translate(0,0)"/>
<path d="" fill="#585925" transform="translate(0,0)"/>
<path d="" fill="#555526" transform="translate(0,0)"/>
<path d="" fill="#6B6A28" transform="translate(0,0)"/>
<path d="" fill="#CBBE2B" transform="translate(0,0)"/>
<path d="" fill="#696827" transform="translate(0,0)"/>
<path d="" fill="#5E5F28" transform="translate(0,0)"/>
<path d="" fill="#555325" transform="translate(0,0)"/>
<path d="" fill="#55582B" transform="translate(0,0)"/>
<path d="" fill="#626126" transform="translate(0,0)"/>
<path d="" fill="#878129" transform="translate(0,0)"/>
<path d="" fill="#565427" transform="translate(0,0)"/>
<path d="" fill="#565628" transform="translate(0,0)"/>
<path d="" fill="#6F6E27" transform="translate(0,0)"/>
<path d="" fill="#585828" transform="translate(0,0)"/>
<path d="" fill="#55572A" transform="translate(0,0)"/>
<path d="" fill="#716E28" transform="translate(0,0)"/>
<path d="" fill="#726F27" transform="translate(0,0)"/>
<path d="" fill="#5F5F28" transform="translate(0,0)"/>
<path d="" fill="#585729" transform="translate(0,0)"/>
<path d="" fill="#5E602A" transform="translate(0,0)"/>
<path d="" fill="#6A6828" transform="translate(0,0)"/>
<path d="" fill="#747029" transform="translate(0,0)"/>
<path d="" fill="#595A2F" transform="translate(0,0)"/>
<path d="" fill="#56572C" transform="translate(0,0)"/>
<path d="" fill="#6C6A27" transform="translate(0,0)"/>
<path d="" fill="#747027" transform="translate(0,0)"/>
<path d="" fill="#59592C" transform="translate(0,0)"/>
<path d="" fill="#5F612A" transform="translate(0,0)"/>
<path d="" fill="#5A5A2E" transform="translate(0,0)"/>
<path d="" fill="#5D5E2B" transform="translate(0,0)"/>
<path d="" fill="#5F5F2A" transform="translate(0,0)"/>
<path d="" fill="#62602A" transform="translate(0,0)"/>
<path d="" fill="#6C6B29" transform="translate(0,0)"/>
<path d="" fill="#767229" transform="translate(0,0)"/>
<path d="" fill="#73712B" transform="translate(0,0)"/>
<path d="" fill="#6C6B2B" transform="translate(0,0)"/>
<path d="" fill="#59592C" transform="translate(0,0)"/>
<path d="" fill="#57592C" transform="translate(0,0)"/>
<path d="" fill="#71702C" transform="translate(0,0)"/>
<path d="" fill="#6D6C2B" transform="translate(0,0)"/>
<path d="" fill="#73732B" transform="translate(0,0)"/>
<path d="" fill="#69692A" transform="translate(0,0)"/>
<path d="" fill="#6F6F2E" transform="translate(0,0)"/>
<path d="" fill="#63642B" transform="translate(0,0)"/>
<path d="" fill="#5F5F2C" transform="translate(0,0)"/>
<path d="" fill="#58592E" transform="translate(0,0)"/>
<path d="" fill="#595930" transform="translate(0,0)"/>
<path d="" fill="#5A5A2F" transform="translate(0,0)"/>
<path d="" fill="#5A5B2D" transform="translate(0,0)"/>
<path d="" fill="#6E6D2A" transform="translate(0,0)"/>
<path d="" fill="#6F6F2E" transform="translate(0,0)"/>
<path d="" fill="#6B6A2E" transform="translate(0,0)"/>
<path d="" fill="#5A5B2F" transform="translate(0,0)"/>
<path d="" fill="#66652B" transform="translate(0,0)"/>
<path d="" fill="#6C6C2D" transform="translate(0,0)"/>
<path d="" fill="#73712D" transform="translate(0,0)"/>
<path d="" fill="#72712D" transform="translate(0,0)"/>
<path d="" fill="#6D6D2D" transform="translate(0,0)"/>
<path d="" fill="#6F6D2E" transform="translate(0,0)"/>
<path d="" fill="#6F6E30" transform="translate(0,0)"/>
<path d="" fill="#5B5E2F" transform="translate(0,0)"/>
<path d="" fill="#60622C" transform="translate(0,0)"/>
<path d="" fill="#6C6D2D" transform="translate(0,0)"/>
<path d="" fill="#63632D" transform="translate(0,0)"/>
<path d="" fill="#6A6A2E" transform="translate(0,0)"/>
<path d="" fill="#737330" transform="translate(0,0)"/>
<path d="" fill="#6C6C2E" transform="translate(0,0)"/>
<path d="" fill="#6C6E2F" transform="translate(0,0)"/>
<path d="" fill="#6D6E2D" transform="translate(0,0)"/>
<path d="" fill="#605F2E" transform="translate(0,0)"/>
<path d="" fill="#5B5C31" transform="translate(0,0)"/>
<path d="" fill="#5A5C31" transform="translate(0,0)"/>
<path d="" fill="#5B5E2F" transform="translate(0,0)"/>
<path d="" fill="#6E6D2F" transform="translate(0,0)"/>
<path d="" fill="#6F6F2F" transform="translate(0,0)"/>
<path d="" fill="#6A6A2D" transform="translate(0,0)"/>
<path d="" fill="#666730" transform="translate(0,0)"/>
<path d="" fill="#61622E" transform="translate(0,0)"/>
<path d="" fill="#5E5F2F" transform="translate(0,0)"/>
<path d="" fill="#5C5E30" transform="translate(0,0)"/>
</svg>
